<svg width="237" height="166" viewBox="0 0 237 166" fill="none" xmlns="http://www.w3.org/2000/svg">
<g clip-path="url(#clip0_5950_74780)">
<path fill-rule="evenodd" clip-rule="evenodd" d="M170.288 99.1715C170.297 98.2052 169.269 98.884 168.385 98.4874C167.5 98.0903 167.584 97.9045 166.7 97.5079C165.815 97.1108 165.79 97.1653 164.905 96.7682C164.021 96.3711 164.028 96.3563 163.143 95.9597C162.259 95.5626 162.22 95.6479 161.336 95.2513C160.451 94.8542 160.421 94.9204 159.536 94.5233C158.651 94.1262 158.732 93.9483 157.847 93.5517C156.963 93.1546 156.884 93.3293 155.999 92.9322C155.114 92.5351 155.216 92.309 154.332 91.9124C153.446 91.5153 153.352 91.724 152.468 91.3268C151.583 90.9297 151.583 90.9276 150.699 90.5311C149.815 90.1345 149.838 90.0842 148.955 89.6876C148.071 89.291 148.103 89.2196 147.219 88.823C146.334 88.4259 146.289 88.5254 145.404 88.1283C144.52 87.7317 144.536 87.6973 143.651 87.3007C142.767 86.9036 142.734 86.9741 141.85 86.577C140.965 86.1804 141.054 85.9824 140.17 85.5858C139.284 85.1882 139.248 85.2697 138.362 84.8726C137.477 84.4755 137.519 84.3844 136.633 83.9873C135.748 83.5902 135.657 83.793 134.772 83.3959C133.886 82.9983 133.928 82.904 133.043 82.5069C132.157 82.1093 132.175 82.0696 131.289 81.6725C130.404 81.2754 130.372 81.3479 129.487 80.9508C128.602 80.5537 128.621 80.5103 127.735 80.1126C126.85 79.7155 126.804 79.8161 125.918 79.4185C125.032 79.0209 125.118 78.8324 124.232 78.4348C123.344 78.0366 123.285 78.1679 122.398 77.7697C121.51 77.3716 121.614 76.9745 120.64 76.9659C119.7 76.9581 119.781 77.3112 118.923 77.694C118.065 78.0774 118.03 77.9985 117.173 78.3813C116.315 78.7646 116.3 78.7313 115.442 79.1146C114.585 79.4979 114.584 79.4963 113.726 79.8797C112.868 80.263 112.899 80.3308 112.041 80.7136C111.183 81.0969 111.219 81.1758 110.361 81.5592C109.503 81.9425 109.51 81.9579 108.652 82.3412C107.795 82.7245 107.725 82.5715 106.868 82.9548C106.01 83.3382 106.074 83.4806 105.216 83.864C104.358 84.2473 104.303 84.1245 103.445 84.5078C102.587 84.8911 102.616 84.9563 101.758 85.3396C100.9 85.7229 100.871 85.6594 100.013 86.0427C99.1569 86.4255 99.175 86.4668 98.3185 86.8491C97.4614 87.2324 97.4582 87.2245 96.6006 87.6078C95.7425 87.9912 95.7324 87.9684 94.8743 88.3517C94.0167 88.7346 94.0464 88.7997 93.1889 89.183C92.3307 89.5664 92.3042 89.5076 91.446 89.8909C90.5884 90.2743 90.6182 90.3404 89.7606 90.7233C88.9019 91.1071 88.9025 91.1087 88.0438 91.492C87.1862 91.8754 87.1368 91.7663 86.2787 92.1496C85.42 92.533 85.4801 92.6659 84.6219 93.0497C83.7628 93.4331 83.7277 93.3547 82.8685 93.7386C82.0098 94.1225 82.038 94.1849 81.1793 94.5688C80.3212 94.9516 80.3148 94.9368 79.4567 95.3201C78.5981 95.704 78.5991 95.7061 77.7399 96.0894C76.8813 96.4733 76.8706 96.4505 76.012 96.8339C75.1528 97.2177 75.1645 97.2437 74.3053 97.6276C73.4445 98.0119 73.4854 98.1025 72.6247 98.4869C71.7644 98.8713 70.8303 98.2317 70.8578 99.171C70.8882 100.135 71.7936 99.4643 72.6778 99.8561C73.5619 100.248 73.4897 100.41 74.3744 100.802C75.2591 101.194 75.2952 101.114 76.1799 101.505C77.0641 101.897 77.0789 101.865 77.9631 102.257C78.8478 102.649 78.8643 102.611 79.749 103.003C80.6342 103.395 80.5752 103.527 81.4599 103.919C82.3446 104.311 82.3414 104.318 83.2256 104.71C84.1108 105.102 84.1639 104.983 85.0486 105.375C85.9333 105.767 85.8701 105.908 86.7548 106.3C87.64 106.693 87.6804 106.601 88.5656 106.993C89.4503 107.385 89.4737 107.333 90.3584 107.726C91.2415 108.117 91.2393 108.122 92.1224 108.513C93.0066 108.905 93.0247 108.865 93.9088 109.256C94.7941 109.648 94.7478 109.751 95.6331 110.143C96.5172 110.534 96.4901 110.594 97.3743 110.986C98.2595 111.378 98.2425 111.416 99.1277 111.808C100.012 112.2 100.037 112.144 100.922 112.536C101.807 112.928 101.837 112.861 102.722 113.254C103.607 113.646 103.579 113.708 104.464 114.1C105.349 114.492 105.334 114.526 106.22 114.918C107.105 115.31 107.153 115.204 108.038 115.596C108.924 115.989 108.919 116.001 109.805 116.394C110.689 116.785 110.706 116.747 111.59 117.14C112.476 117.532 112.49 117.502 113.375 117.895C114.261 118.287 114.222 118.375 115.107 118.767C115.994 119.16 115.944 119.27 116.831 119.663C117.718 120.055 117.782 119.911 118.67 120.304C119.557 120.697 119.457 121.216 120.427 121.217C121.399 121.218 121.318 120.743 122.206 120.351C123.095 119.96 123.118 120.012 124.006 119.62C124.895 119.228 124.841 119.106 125.729 118.714C126.618 118.322 126.597 118.277 127.486 117.886C128.374 117.494 128.396 117.544 129.285 117.152C130.173 116.761 130.183 116.781 131.071 116.389C131.96 115.997 132.004 116.098 132.893 115.706C133.782 115.314 133.732 115.202 134.621 114.809C135.509 114.418 135.517 114.435 136.405 114.043C137.294 113.651 137.258 113.572 138.147 113.179C139.036 112.787 139.105 112.942 139.993 112.55C140.88 112.159 140.828 112.041 141.715 111.65C142.603 111.258 142.605 111.262 143.493 110.871C144.382 110.479 144.451 110.635 145.34 110.243C146.227 109.851 146.149 109.673 147.036 109.282C147.925 108.889 147.924 108.887 148.813 108.494C149.701 108.103 149.726 108.158 150.614 107.766C151.503 107.374 151.539 107.454 152.428 107.062C153.317 106.67 153.275 106.576 154.164 106.184C155.053 105.792 155.079 105.851 155.969 105.459C156.858 105.067 156.874 105.103 157.763 104.71C158.653 104.318 158.585 104.164 159.474 103.772C160.363 103.38 160.37 103.396 161.258 103.004C162.148 102.612 162.19 102.706 163.079 102.314C163.969 101.922 164.012 102.018 164.902 101.626C165.791 101.234 165.79 101.231 166.679 100.838C167.571 100.445 167.445 100.033 168.406 99.8741C169.521 99.6904 170.28 100.143 170.288 99.1715Z" stroke="#414C58" stroke-width="0.4593" stroke-linecap="round" stroke-linejoin="round"/>
<path fill-rule="evenodd" clip-rule="evenodd" d="M50.2402 89.9445C51.0851 90.3178 51.0574 90.3792 51.9023 90.7519C52.7476 91.1257 52.7907 91.0299 53.636 91.4032C54.4809 91.7764 54.4007 91.9575 55.2455 92.3308C56.0909 92.7041 56.0813 92.7258 56.9267 93.0991C57.7726 93.4729 57.7896 93.4342 58.6355 93.808C59.4814 94.1818 59.5515 94.023 60.3974 94.3968C61.2423 94.7701 61.2263 94.8061 62.0707 95.1794C62.9166 95.5532 62.8512 95.7004 63.6966 96.0742C64.5425 96.4474 64.5685 96.3892 65.4144 96.7625C66.2609 97.1363 66.2279 97.2099 67.0744 97.5837C67.9219 97.958 68.0217 97.733 68.8692 98.1073C69.7167 98.4817 69.6509 98.6289 70.4984 99.0032C70.7221 99.1022 71.0196 99.1154 71.2428 99.0154C72.1243 98.6215 72.0743 98.5103 72.9558 98.1169C73.8379 97.7224 73.866 97.7859 74.7481 97.392C75.6296 96.9981 75.6455 97.0336 76.527 96.6402C77.4085 96.2462 77.3814 96.1859 78.2635 95.792C79.1455 95.398 79.1997 95.5193 80.0817 95.1248C80.9632 94.7309 80.9627 94.7293 81.8442 94.3354C82.7262 93.9409 82.7135 93.9129 83.5955 93.5189C84.4776 93.125 84.4866 93.1457 85.3686 92.7517C86.2501 92.3578 86.2321 92.3165 87.1141 91.9226C87.9956 91.5287 88.0248 91.5933 88.9069 91.1993C89.7873 90.8059 89.7331 90.6852 90.6136 90.2918C91.4945 89.8979 91.4515 89.802 92.3325 89.4081C93.2145 89.0142 93.2368 89.0634 94.1189 88.6695C94.9998 88.2756 94.9892 88.2523 95.8707 87.8589C96.7528 87.465 96.7485 87.4549 97.6305 87.061C98.512 86.667 98.5795 86.8169 99.461 86.423C100.344 86.0285 100.266 85.8559 101.149 85.462C102.031 85.068 102.038 85.0834 102.92 84.6895C103.802 84.2955 103.88 84.4676 104.762 84.0737C105.645 83.6792 105.618 83.6205 106.501 83.226C107.384 82.8316 107.379 82.8194 108.261 82.4249C109.143 82.031 109.134 82.0104 110.015 81.6164C110.898 81.222 110.894 81.213 111.777 80.8185C112.66 80.4241 112.671 80.4489 113.553 80.0545C114.437 79.66 114.424 79.632 115.307 79.2375C116.192 78.8425 116.19 78.8393 117.075 78.4438C117.959 78.0489 117.973 78.078 118.857 77.683C119.541 77.3775 119.502 76.4726 118.814 76.1772C117.969 75.815 118.043 75.6445 117.2 75.2824C116.355 74.9197 116.346 74.9403 115.501 74.5776C114.657 74.2155 114.616 74.3092 113.771 73.9465C112.927 73.5838 112.918 73.6039 112.074 73.2413C111.228 72.8786 111.193 72.9596 110.348 72.5969C109.503 72.2337 109.517 72.2024 108.672 71.8397C107.828 71.4771 107.838 71.4543 106.993 71.0916C106.149 70.7289 106.19 70.6331 105.345 70.2704C104.5 69.9072 104.523 69.8526 103.678 69.4894C102.833 69.1267 102.745 69.33 101.899 68.9674C101.053 68.6036 101.08 68.5417 100.233 68.1779C99.3861 67.8147 99.3973 67.7888 98.5503 67.4255C98.3303 67.3308 98.0636 67.2439 97.8441 67.3408C96.9621 67.73 96.9424 67.6855 96.0604 68.0747C95.1784 68.4638 95.2517 68.629 94.3697 69.0182C93.4876 69.4074 93.4605 69.3459 92.579 69.7351C91.697 70.1237 91.6965 70.1227 90.8144 70.5118C89.9318 70.901 89.8931 70.8131 89.0105 71.2023C88.1285 71.5914 88.1981 71.7481 87.316 72.1368C86.434 72.5259 86.3739 72.3915 85.4919 72.7806C84.6093 73.1698 84.6588 73.281 83.7767 73.6701C82.8947 74.0593 82.9207 74.1181 82.0382 74.5072C81.1561 74.8964 81.0977 74.7645 80.2151 75.1537C79.3347 75.5423 79.3798 75.6445 78.4988 76.0332C77.6179 76.4218 77.5525 76.2746 76.671 76.6638C75.7884 77.0529 75.8703 77.2366 74.9877 77.6263C74.1062 78.015 74.0504 77.8889 73.1689 78.2781C72.2863 78.6673 72.3166 78.735 71.4341 79.1242C70.552 79.5134 70.5255 79.453 69.6434 79.8422C68.7608 80.2319 68.738 80.1805 67.8554 80.5702C66.9729 80.9594 66.9861 80.9895 66.1041 81.3787C65.2215 81.7684 65.2736 81.8859 64.391 82.2751C63.5079 82.6648 63.4442 82.5218 62.5611 82.9115C61.678 83.3012 61.7194 83.3939 60.8363 83.7836C59.9543 84.1727 59.9511 84.1653 59.0691 84.5545C58.186 84.9442 58.2067 84.9907 57.3236 85.3804C56.4405 85.7701 56.4246 85.7341 55.5415 86.1238C54.6578 86.5135 54.6605 86.5188 53.7769 86.9085C52.8922 87.2987 52.8374 87.1753 51.9522 87.5656C51.0675 87.9558 51.1201 88.0744 50.2354 88.4651C49.5521 88.7664 49.5574 89.6427 50.2402 89.9445Z" fill="#E7E9EA"/>
<path fill-rule="evenodd" clip-rule="evenodd" d="M50.2402 89.9445C51.0851 90.3178 51.0574 90.3792 51.9023 90.7519C52.7476 91.1257 52.7907 91.0299 53.636 91.4032C54.4809 91.7764 54.4007 91.9575 55.2455 92.3308C56.0909 92.7041 56.0813 92.7258 56.9267 93.0991C57.7726 93.4729 57.7896 93.4342 58.6355 93.808C59.4814 94.1818 59.5515 94.023 60.3974 94.3968C61.2423 94.7701 61.2263 94.8061 62.0707 95.1794C62.9166 95.5532 62.8512 95.7004 63.6966 96.0742C64.5425 96.4474 64.5685 96.3892 65.4144 96.7625C66.2609 97.1363 66.2279 97.2099 67.0744 97.5837C67.9219 97.958 68.0217 97.733 68.8692 98.1073C69.7167 98.4817 69.6509 98.6289 70.4984 99.0032C70.7221 99.1022 71.0196 99.1154 71.2428 99.0154C72.1243 98.6214 72.0743 98.5103 72.9558 98.1169C73.8379 97.7224 73.866 97.7859 74.7481 97.392C75.6296 96.9981 75.6455 97.0336 76.527 96.6402C77.4085 96.2462 77.3814 96.1859 78.2635 95.792C79.1455 95.398 79.1997 95.5193 80.0817 95.1248C80.9632 94.7309 80.9627 94.7293 81.8442 94.3354C82.7262 93.9409 82.7135 93.9129 83.5955 93.5189C84.4776 93.125 84.4866 93.1457 85.3686 92.7517C86.2501 92.3578 86.2321 92.3165 87.1141 91.9226C87.9956 91.5287 88.0248 91.5932 88.9069 91.1993C89.7873 90.8059 89.7331 90.6852 90.6136 90.2918C91.4945 89.8979 91.4515 89.802 92.3325 89.4081C93.2145 89.0142 93.2368 89.0634 94.1189 88.6695C94.9998 88.2756 94.9892 88.2523 95.8707 87.8589C96.7528 87.465 96.7485 87.4549 97.6305 87.061C98.512 86.667 98.5795 86.8169 99.461 86.423C100.344 86.0285 100.266 85.8559 101.149 85.462C102.031 85.068 102.038 85.0834 102.92 84.6895C103.802 84.2955 103.88 84.4676 104.762 84.0737C105.645 83.6792 105.618 83.6205 106.501 83.226C107.384 82.8316 107.379 82.8194 108.261 82.4249C109.143 82.031 109.134 82.0104 110.015 81.6164C110.898 81.222 110.894 81.213 111.777 80.8185C112.66 80.4241 112.671 80.4489 113.553 80.0545C114.437 79.66 114.424 79.632 115.307 79.2375C116.192 78.8425 116.191 78.8394 117.075 78.4438C117.959 78.0488 117.973 78.078 118.857 77.683C119.541 77.3775 119.502 76.4726 118.814 76.1772C117.969 75.815 118.043 75.6445 117.2 75.2824C116.355 74.9197 116.346 74.9403 115.501 74.5776C114.656 74.2155 114.616 74.3092 113.771 73.9465C112.927 73.5838 112.918 73.6039 112.074 73.2413C111.228 72.8786 111.193 72.9596 110.348 72.5969C109.503 72.2337 109.517 72.2024 108.672 71.8397C107.828 71.4771 107.838 71.4543 106.993 71.0916C106.149 70.7289 106.19 70.6331 105.345 70.2704C104.5 69.9072 104.523 69.8526 103.678 69.4894C102.833 69.1267 102.745 69.33 101.899 68.9674C101.053 68.6036 101.08 68.5417 100.233 68.1779C99.3861 67.8147 99.3973 67.7888 98.5503 67.4255C98.3303 67.3308 98.0636 67.2439 97.8441 67.3408C96.9621 67.73 96.9424 67.6855 96.0604 68.0747C95.1784 68.4638 95.2517 68.629 94.3697 69.0182C93.4876 69.4074 93.4605 69.3459 92.579 69.7351C91.697 70.1237 91.6965 70.1227 90.8144 70.5118C89.9318 70.901 89.8931 70.8131 89.0105 71.2023C88.1285 71.5914 88.1981 71.7481 87.316 72.1368C86.434 72.5259 86.3739 72.3915 85.4919 72.7806C84.6093 73.1698 84.6588 73.281 83.7767 73.6701C82.8947 74.0593 82.9207 74.1181 82.0382 74.5072C81.1561 74.8964 81.0977 74.7645 80.2151 75.1537C79.3347 75.5423 79.3798 75.6445 78.4989 76.0332C77.6179 76.4218 77.5525 76.2746 76.671 76.6638C75.7884 77.0529 75.8703 77.2366 74.9877 77.6263C74.1062 78.015 74.0504 77.8889 73.1689 78.2781C72.2863 78.6673 72.3166 78.735 71.4341 79.1242C70.552 79.5134 70.5255 79.453 69.6434 79.8422C68.7608 80.2319 68.738 80.1805 67.8554 80.5702C66.9729 80.9594 66.9861 80.9895 66.1041 81.3787C65.2215 81.7684 65.2736 81.8859 64.391 82.2751C63.5079 82.6648 63.4442 82.5218 62.5611 82.9115C61.678 83.3012 61.7194 83.3939 60.8363 83.7836C59.9543 84.1727 59.9511 84.1653 59.0691 84.5545C58.186 84.9442 58.2067 84.9907 57.3236 85.3804C56.4405 85.7701 56.4246 85.7341 55.5415 86.1238C54.6578 86.5135 54.6605 86.5188 53.7769 86.9085C52.8922 87.2987 52.8374 87.1753 51.9522 87.5656C51.0675 87.9558 51.1201 88.0744 50.2354 88.4651C49.5521 88.7664 49.5574 89.6427 50.2402 89.9445Z" stroke="#414C58" stroke-width="0.4593" stroke-linecap="round" stroke-linejoin="round"/>
<path fill-rule="evenodd" clip-rule="evenodd" d="M190.924 89.9146C190.079 90.2879 190.136 90.4165 189.291 90.7898C188.446 91.1631 188.404 91.0683 187.558 91.4421C186.713 91.8154 186.687 91.755 185.842 92.1283C184.997 92.5021 185.058 92.6403 184.212 93.0136C183.367 93.3874 183.304 93.2471 182.458 93.6209C181.613 93.9941 181.71 94.2123 180.864 94.5861C180.019 94.9594 179.937 94.7741 179.092 95.1473C178.246 95.5206 178.254 95.5391 177.408 95.9124C176.563 96.2862 176.541 96.238 175.695 96.6119C174.849 96.9857 174.866 97.0222 174.02 97.396C173.172 97.7703 173.191 97.8127 172.344 98.187C171.496 98.5614 171.466 98.4941 170.619 98.8685C170.396 98.9675 170.168 99.0908 169.946 98.9913C169.064 98.5974 169.061 98.6032 168.179 98.2093C167.297 97.8153 167.351 97.6978 166.469 97.3033C165.587 96.9099 165.497 97.1111 164.615 96.7172C163.734 96.3233 163.776 96.2285 162.895 95.8346C162.013 95.4407 162.058 95.3406 161.176 94.9467C160.294 94.5527 160.235 94.683 159.354 94.2891C158.472 93.8951 158.512 93.8046 157.63 93.4107C156.749 93.0167 156.68 93.1698 155.798 92.7758C154.916 92.3814 155 92.1945 154.118 91.8006C153.236 91.4066 153.219 91.4453 152.337 91.0513C151.456 90.658 151.424 90.73 150.544 90.3366C149.662 89.9432 149.641 89.9908 148.76 89.5974C147.878 89.203 147.945 89.0537 147.063 88.6592C146.182 88.2658 146.197 88.2319 145.316 87.8385C144.434 87.4441 144.367 87.5913 143.485 87.1973C142.604 86.8034 142.583 86.8479 141.702 86.454C140.819 86.06 140.827 86.0426 139.944 85.6486C139.063 85.2547 139.089 85.1954 138.207 84.8015C137.325 84.407 137.344 84.3631 136.462 83.9691C135.579 83.5747 135.581 83.571 134.698 83.1765C133.815 82.7821 133.799 82.8202 132.916 82.4257C132.034 82.0318 132.022 82.0572 131.141 81.6633C130.258 81.2688 130.272 81.2387 129.389 80.8442C128.506 80.4497 128.491 80.4831 127.608 80.0892C126.725 79.6942 126.71 79.726 125.827 79.3315C124.943 78.9365 124.979 78.8555 124.095 78.4605C123.21 78.065 123.24 77.9983 122.356 77.6033C121.672 77.2978 121.6 76.3003 122.289 76.0048C123.133 75.6427 123.196 75.7867 124.039 75.4245C124.884 75.0618 124.859 75.0031 125.704 74.6404C126.548 74.2782 126.59 74.3741 127.434 74.0119C128.278 73.6492 128.282 73.6572 129.127 73.2945C129.972 72.9318 129.984 72.9598 130.829 72.5972C131.674 72.2345 131.586 72.0301 132.431 71.6674C133.275 71.3053 133.359 71.498 134.203 71.1358C135.048 70.7731 135.024 70.7191 135.87 70.3564C136.715 69.9938 136.742 70.0562 137.587 69.6935C138.433 69.3309 138.351 69.1424 139.197 68.7797C140.044 68.4159 140.088 68.5181 140.934 68.1549C141.781 67.7912 141.776 67.7795 142.623 67.4158C142.843 67.3215 143.109 67.2532 143.329 67.3501C144.211 67.7393 144.222 67.7133 145.104 68.1025C145.986 68.4916 145.95 68.5737 146.832 68.9629C147.714 69.352 147.759 69.2514 148.64 69.6401C149.522 70.0292 149.481 70.1224 150.363 70.5116C151.245 70.9007 151.224 70.9479 152.107 71.3375C152.988 71.7262 153.019 71.6584 153.901 72.047C154.783 72.4362 154.741 72.532 155.623 72.9212C156.505 73.3104 156.5 73.3204 157.382 73.7096C158.265 74.0987 158.262 74.1046 159.144 74.4937C160.027 74.8829 160.087 74.7484 160.969 75.1376C161.85 75.5262 161.865 75.4907 162.746 75.8794C163.627 76.2685 163.581 76.3733 164.462 76.7625C165.345 77.1517 165.406 77.013 166.289 77.4021C167.17 77.7913 167.117 77.9115 167.998 78.3001C168.881 78.6893 168.894 78.6607 169.776 79.0498C170.658 79.439 170.662 79.4305 171.543 79.8197C172.427 80.2088 172.419 80.2263 173.302 80.616C174.184 81.0052 174.161 81.056 175.043 81.4452C175.926 81.8348 175.955 81.7692 176.838 82.1584C177.721 82.548 177.715 82.5613 178.598 82.951C179.481 83.3407 179.428 83.4614 180.311 83.8505C181.193 84.2397 181.242 84.1285 182.124 84.5177C183.007 84.9074 183.034 84.8475 183.917 85.2372C184.8 85.6269 184.762 85.7116 185.646 86.1013C186.529 86.491 186.552 86.4386 187.435 86.8283C188.321 87.2185 188.271 87.3292 189.157 87.7194C190.041 88.1096 190.079 88.0228 190.965 88.4135C191.647 88.7148 191.607 89.6128 190.924 89.9146Z" fill="white"/>
<path fill-rule="evenodd" clip-rule="evenodd" d="M190.924 89.9146C190.079 90.2879 190.136 90.4165 189.291 90.7898C188.446 91.1631 188.404 91.0683 187.558 91.4421C186.713 91.8154 186.687 91.755 185.842 92.1283C184.997 92.5021 185.058 92.6403 184.212 93.0136C183.367 93.3874 183.304 93.2471 182.458 93.6209C181.613 93.9941 181.71 94.2123 180.864 94.5861C180.019 94.9594 179.937 94.7741 179.092 95.1473C178.246 95.5206 178.254 95.5391 177.408 95.9124C176.563 96.2862 176.541 96.238 175.695 96.6119C174.849 96.9857 174.866 97.0222 174.02 97.396C173.172 97.7703 173.191 97.8127 172.344 98.187C171.496 98.5614 171.466 98.4941 170.619 98.8685C170.396 98.9675 170.168 99.0908 169.946 98.9913C169.064 98.5974 169.061 98.6032 168.179 98.2093C167.297 97.8153 167.351 97.6978 166.469 97.3033C165.587 96.9099 165.497 97.1111 164.615 96.7172C163.734 96.3233 163.776 96.2285 162.895 95.8346C162.013 95.4407 162.058 95.3406 161.176 94.9467C160.294 94.5527 160.235 94.683 159.354 94.2891C158.472 93.8951 158.512 93.8046 157.63 93.4107C156.749 93.0167 156.68 93.1698 155.798 92.7758C154.916 92.3814 155 92.1945 154.118 91.8005C153.236 91.4066 153.219 91.4453 152.337 91.0513C151.456 90.658 151.424 90.73 150.544 90.3366C149.662 89.9432 149.641 89.9908 148.76 89.5974C147.878 89.203 147.945 89.0537 147.063 88.6592C146.182 88.2658 146.197 88.2319 145.316 87.8385C144.434 87.4441 144.367 87.5913 143.485 87.1973C142.604 86.8034 142.583 86.8479 141.702 86.454C140.819 86.06 140.827 86.0426 139.944 85.6486C139.063 85.2547 139.089 85.1954 138.207 84.8015C137.325 84.407 137.344 84.3631 136.462 83.9691C135.579 83.5747 135.581 83.571 134.698 83.1765C133.815 82.7821 133.799 82.8202 132.916 82.4257C132.034 82.0318 132.022 82.0572 131.141 81.6633C130.258 81.2688 130.272 81.2387 129.389 80.8442C128.506 80.4497 128.491 80.4831 127.608 80.0892C126.725 79.6942 126.71 79.726 125.827 79.3315C124.943 78.9365 124.979 78.8555 124.095 78.4605C123.21 78.065 123.24 77.9983 122.356 77.6033C121.672 77.2978 121.6 76.3003 122.289 76.0048C123.133 75.6427 123.196 75.7867 124.039 75.4245C124.884 75.0618 124.859 75.0031 125.704 74.6404C126.548 74.2782 126.59 74.3741 127.434 74.0119C128.278 73.6492 128.282 73.6572 129.127 73.2945C129.972 72.9318 129.984 72.9598 130.829 72.5972C131.674 72.2345 131.586 72.0301 132.431 71.6674C133.275 71.3053 133.359 71.498 134.203 71.1358C135.048 70.7731 135.024 70.7191 135.87 70.3564C136.715 69.9938 136.742 70.0562 137.587 69.6935C138.433 69.3309 138.351 69.1424 139.197 68.7797C140.044 68.4159 140.088 68.5181 140.934 68.1549C141.781 67.7912 141.776 67.7795 142.623 67.4158C142.843 67.3215 143.109 67.2532 143.329 67.3501C144.211 67.7393 144.222 67.7133 145.104 68.1025C145.986 68.4916 145.95 68.5737 146.832 68.9629C147.714 69.352 147.759 69.2514 148.64 69.6401C149.522 70.0292 149.481 70.1224 150.363 70.5116C151.245 70.9007 151.224 70.9479 152.107 71.3375C152.988 71.7262 153.019 71.6584 153.901 72.047C154.783 72.4362 154.741 72.532 155.623 72.9212C156.505 73.3104 156.5 73.3204 157.382 73.7096C158.265 74.0987 158.262 74.1046 159.144 74.4937C160.027 74.8829 160.087 74.7484 160.969 75.1376C161.85 75.5262 161.865 75.4907 162.746 75.8794C163.627 76.2685 163.581 76.3733 164.462 76.7625C165.345 77.1517 165.406 77.013 166.289 77.4021C167.17 77.7913 167.117 77.9115 167.998 78.3001C168.881 78.6893 168.894 78.6607 169.776 79.0498C170.658 79.439 170.662 79.4305 171.543 79.8197C172.427 80.2088 172.419 80.2263 173.302 80.616C174.184 81.0052 174.161 81.056 175.043 81.4452C175.926 81.8348 175.955 81.7692 176.838 82.1584C177.721 82.548 177.715 82.5613 178.598 82.951C179.481 83.3407 179.428 83.4614 180.311 83.8505C181.193 84.2397 181.242 84.1285 182.124 84.5177C183.007 84.9074 183.034 84.8475 183.917 85.2372C184.8 85.6269 184.762 85.7116 185.646 86.1013C186.529 86.491 186.552 86.4386 187.435 86.8283C188.321 87.2185 188.271 87.3292 189.157 87.7194C190.041 88.1096 190.079 88.0228 190.965 88.4135C191.647 88.7148 191.607 89.6128 190.924 89.9146Z" stroke="#414C58" stroke-width="0.4593" stroke-linecap="round" stroke-linejoin="round"/>
<path fill-rule="evenodd" clip-rule="evenodd" d="M70.3562 98.8918L120.535 78.0216L120.641 121.128L70.3562 98.8918Z" fill="#B8BCC0"/>
<path fill-rule="evenodd" clip-rule="evenodd" d="M70.3562 98.8918L120.535 78.0216L120.641 121.128L70.3562 98.8918Z" stroke="#414C58" stroke-width="0.4593" stroke-linecap="round" stroke-linejoin="round"/>
<path fill-rule="evenodd" clip-rule="evenodd" d="M93.8094 48.866C94.4168 49.5437 94.3684 49.5866 94.9757 50.2643C95.5831 50.9421 95.6511 50.8817 96.2584 51.5594C96.6904 52.0412 97.1346 52.4929 97.5942 52.9307C98.0623 53.3766 98.421 53.9378 98.9151 54.3376C99.4173 54.7442 99.9295 55.1424 100.456 55.5013C100.988 55.8651 101.538 56.2114 102.093 56.5264C102.653 56.8451 103.317 56.9595 103.896 57.2285C104.48 57.5001 105.017 57.8744 105.616 58.0957C106.22 58.3181 106.816 58.5797 107.433 58.7512C108.052 58.9244 108.718 58.9069 109.347 59.0287C109.978 59.151 110.606 59.2632 111.243 59.3342C111.881 59.4051 112.515 59.5634 113.156 59.583C113.798 59.6026 114.437 59.4305 115.078 59.3988C115.718 59.367 116.357 59.3622 116.994 59.2796C117.63 59.197 118.257 59.079 118.885 58.9455C119.512 58.8126 120.13 58.6575 120.746 58.4738C121.359 58.2906 121.998 58.1746 122.597 57.9422C123.193 57.7103 123.788 57.4577 124.366 57.1771C124.941 56.8981 125.435 56.4666 125.989 56.1393C126.538 55.8148 127.16 55.5977 127.687 55.2255C128.207 54.8575 128.738 54.4853 129.232 54.0712C129.719 53.6625 130.181 53.2093 130.64 52.7555C131.092 52.3092 131.53 51.8342 131.952 51.3445C132.366 50.8637 132.628 50.2575 133.01 49.7349C133.547 49.001 133.645 49.072 134.182 48.3376C134.719 47.6037 134.807 47.6668 135.344 46.9329C135.743 46.3875 136.617 46.7015 136.504 47.3665C136.351 48.2619 136.241 48.2433 136.088 49.1392C135.935 50.0351 135.957 50.0388 135.804 50.9346C135.696 51.5716 135.495 52.1943 135.438 52.8249C135.38 53.4676 135.493 54.1162 135.487 54.7505C135.481 55.3949 135.379 56.0398 135.426 56.6731C135.472 57.3148 135.518 57.9613 135.616 58.5897C135.716 59.2251 135.889 59.8499 136.039 60.4688C136.19 61.0931 136.537 61.6575 136.737 62.2627C136.939 62.8716 137.042 63.5122 137.291 64.0994C137.542 64.6898 137.802 65.277 138.098 65.843C138.396 66.4106 138.74 66.9533 139.081 67.4938C139.423 68.0355 139.727 68.6079 140.112 69.1193C140.496 69.6313 141.028 70.0252 141.452 70.5049C141.876 70.9846 142.211 71.5501 142.673 71.9944C143.134 72.438 143.582 72.9103 144.079 73.3164C144.574 73.7215 145.16 74.0185 145.688 74.3839C146.214 74.7476 146.767 75.0732 147.323 75.3946C147.876 75.7144 148.488 75.9177 149.07 76.1936C149.647 76.4673 150.184 76.8295 150.787 77.0566C151.384 77.2822 152.003 77.4511 152.623 77.629C153.236 77.8048 153.87 77.889 154.504 78.0155C155.128 78.1405 155.751 78.2665 156.393 78.3417C157.025 78.4152 157.652 78.6551 158.3 78.6784C158.935 78.7017 159.576 78.4655 160.224 78.4375C161.135 78.3983 161.136 78.4179 162.047 78.3787C162.958 78.3395 162.958 78.3411 163.869 78.3019C164.545 78.2728 164.815 79.2926 164.223 79.6182C163.425 80.0577 163.373 79.9634 162.574 80.4029C161.776 80.8418 161.817 80.9159 161.019 81.3549C160.451 81.6673 159.915 82.0188 159.385 82.3677C158.845 82.723 158.357 83.1365 157.856 83.5278C157.347 83.9249 156.806 84.2738 156.338 84.7048C155.864 85.1416 155.458 85.6383 155.026 86.1069C154.59 86.5802 154.118 87.0186 153.726 87.5211C153.33 88.0278 153.024 88.5933 152.674 89.127C152.321 89.6639 151.849 90.1298 151.543 90.69C151.237 91.2533 151.109 91.9051 150.85 92.4891C150.59 93.0747 150.232 93.6217 150.021 94.2247C149.809 94.8288 149.683 95.4621 149.521 96.0805C149.359 96.6995 149.322 97.3422 149.211 97.9718C149.099 98.6013 149.032 99.2288 148.971 99.8657C148.911 100.502 148.699 101.128 148.69 101.769C148.681 102.407 148.63 103.055 148.673 103.694C148.715 104.331 149.029 104.941 149.123 105.575C149.217 106.206 149.124 106.873 149.27 107.498C149.415 108.119 149.696 108.708 149.893 109.319C150.088 109.925 150.351 110.506 150.598 111.101C150.842 111.688 151.088 112.274 151.384 112.847C151.675 113.411 152.009 113.952 152.351 114.499C152.687 115.038 152.897 115.672 153.282 116.191C153.66 116.7 154.101 117.177 154.527 117.664C155.126 118.35 155.155 118.325 155.753 119.01C156.352 119.695 156.439 119.62 157.038 120.305C157.482 120.814 156.889 121.588 156.264 121.33C155.422 120.982 155.401 121.032 154.559 120.684C153.716 120.336 153.763 120.223 152.921 119.875C152.322 119.628 151.717 119.387 151.112 119.191C150.496 118.992 149.862 118.841 149.243 118.695C148.614 118.546 147.96 118.528 147.33 118.432C146.691 118.335 146.053 118.28 145.416 118.236C144.773 118.191 144.131 118.064 143.493 118.072C142.849 118.08 142.202 118.138 141.566 118.198C140.925 118.258 140.283 118.339 139.652 118.451C139.019 118.563 138.413 118.801 137.793 118.963C137.172 119.126 136.558 119.306 135.953 119.518C135.347 119.73 134.759 119.979 134.173 120.239C133.586 120.499 132.979 120.717 132.416 121.022C131.852 121.328 131.316 121.684 130.778 122.033C130.241 122.383 129.722 122.758 129.214 123.15C128.708 123.542 128.284 124.026 127.809 124.458C127.336 124.887 126.873 125.32 126.435 125.789C125.998 126.255 125.46 126.636 125.061 127.14C124.665 127.64 124.42 128.252 124.063 128.786C123.71 129.316 123.331 129.829 123.019 130.391C122.711 130.948 122.426 131.517 122.161 132.105C121.9 132.684 121.632 133.264 121.416 133.871C121.203 134.468 121.108 135.104 120.941 135.728C120.777 136.34 120.633 136.955 120.516 137.59C120.351 138.484 120.162 138.449 119.998 139.343C119.833 140.237 120.049 140.276 119.884 141.17C119.763 141.833 118.807 141.825 118.62 141.177C118.368 140.304 118.374 140.302 118.122 139.428C117.87 138.555 117.779 138.582 117.527 137.709C117.347 137.088 117.074 136.504 116.851 135.912C116.623 135.307 116.362 134.728 116.091 134.154C115.816 133.571 115.68 132.917 115.363 132.367C115.041 131.809 114.615 131.313 114.254 130.789C113.887 130.259 113.459 129.78 113.055 129.288C112.647 128.791 112.266 128.272 111.822 127.813C111.375 127.352 110.947 126.864 110.467 126.443C109.984 126.019 109.421 125.689 108.908 125.307C108.393 124.925 107.815 124.64 107.272 124.3C106.728 123.96 106.258 123.49 105.69 123.195C105.12 122.9 104.458 122.804 103.866 122.555C103.275 122.307 102.714 121.99 102.104 121.789C101.495 121.589 100.889 121.374 100.265 121.222C99.642 121.072 99.0124 120.933 98.3774 120.832C97.7451 120.732 97.1107 120.571 96.4694 120.521C95.8317 120.472 95.1808 120.633 94.5368 120.636C93.8976 120.638 93.2478 120.513 92.6059 120.569C91.9694 120.624 91.319 120.672 90.6835 120.78C90.0544 120.887 89.4274 121.066 88.8015 121.226C88.1846 121.383 87.5661 121.577 86.9545 121.787C86.353 121.994 85.7329 122.192 85.14 122.45C84.5576 122.704 83.9923 123.026 83.4205 123.331C82.6166 123.76 82.5937 123.718 81.7904 124.147C80.9864 124.576 81.0268 124.651 80.2229 125.08C79.6262 125.398 79.0651 124.759 79.4572 124.209C79.9854 123.468 80.0406 123.507 80.5688 122.766C81.0964 122.026 81.047 121.991 81.5752 121.25C81.9508 120.723 82.3095 120.186 82.6352 119.643C82.9673 119.088 83.1517 118.46 83.4327 117.892C83.7186 117.313 83.9917 116.74 84.2255 116.149C84.463 115.551 84.6984 114.958 84.8833 114.35C85.0709 113.735 85.1904 113.109 85.3249 112.487C85.4604 111.859 85.6687 111.247 85.7515 110.615C85.8355 109.979 85.8854 109.339 85.9168 108.702C85.9481 108.062 86.0119 107.418 85.9912 106.78C85.9699 106.14 85.7415 105.516 85.6687 104.881C85.5964 104.245 85.6474 103.592 85.5236 102.965C85.4003 102.337 85.2159 101.72 85.0427 101.105C84.869 100.489 84.5443 99.9261 84.3217 99.3256C84.0991 98.7263 84.0385 98.0602 83.768 97.4794C83.4986 96.9001 83.1495 96.3548 82.8329 95.7973C82.5172 95.2424 82.2181 94.67 81.8568 94.1395C81.4976 93.6121 81.0938 93.1081 80.6899 92.6082C80.2893 92.1121 79.8281 91.6621 79.3844 91.1961C78.9445 90.735 78.5119 90.2585 78.0305 89.8306C77.555 89.4071 77.0996 88.9422 76.5842 88.5541C76.0757 88.1713 75.5422 87.8001 74.996 87.4549C74.4588 87.115 73.8425 86.89 73.2697 86.5892C72.7075 86.2943 72.1506 85.966 71.555 85.7108C70.7171 85.3524 70.7394 85.301 69.9015 84.942C69.0635 84.5836 69.0184 84.6889 68.1804 84.3305C67.5582 84.0642 67.7277 83.2175 68.4041 83.18C69.3143 83.1297 69.3037 82.9385 70.2139 82.8877C71.1246 82.8369 71.1374 83.0714 72.0481 83.0206C72.6953 82.9846 73.3148 82.7066 73.9445 82.6219C74.5863 82.5351 75.2383 82.5488 75.86 82.4133C76.4918 82.2751 77.0901 82.0305 77.6995 81.8446C78.3169 81.6561 78.8945 81.3866 79.4875 81.151C80.0869 80.9133 80.7606 80.8498 81.3329 80.5665C81.9099 80.2811 82.4094 79.8528 82.9567 79.5234C83.5077 79.192 84.0055 78.7922 84.5247 78.4195C85.0464 78.0446 85.5672 77.6798 86.0549 77.2658C86.5438 76.8501 87.1176 76.525 87.5703 76.0729C88.0241 75.6196 88.4689 75.1484 88.8838 74.6613C89.2994 74.1737 89.6755 73.6463 90.0507 73.1274C90.4253 72.6085 90.6373 71.9832 90.9694 71.4358C91.3009 70.8888 91.7414 70.4028 92.0284 69.8304C92.3147 69.2591 92.446 68.6184 92.6856 68.0244C92.9247 67.4324 93.2212 66.8632 93.412 66.2512C93.6017 65.6423 93.7377 65.0186 93.878 64.3927C94.0177 63.7706 94.234 63.1591 94.3227 62.5232C94.4104 61.8926 94.4571 61.2503 94.4933 60.6081C94.5289 59.9738 94.4348 59.3331 94.4178 58.6898C94.4008 58.055 94.4492 57.4117 94.3796 56.771C94.311 56.1409 94.1877 55.5109 94.0661 54.8771C93.9476 54.255 93.7754 53.6387 93.6038 53.0155C93.3631 52.1392 93.3562 52.1408 93.1155 51.2645C92.8743 50.3882 92.8147 50.4046 92.5735 49.5284C92.3944 48.8777 93.3583 48.363 93.8094 48.866Z" fill="#A5D1FF"/>
<path fill-rule="evenodd" clip-rule="evenodd" d="M147.982 80.6027C144.175 80.7907 140.102 79.6359 137.542 76.8953C137.021 76.3378 136.17 76.2446 135.543 76.6814C129.693 80.7594 123.742 84.7823 117.121 87.4202C114.924 88.2954 112.636 89.0081 110.309 89.5047C101.809 91.3171 92.1043 99.2163 88.6287 107.155C87.7005 109.276 86.7079 111.369 85.6527 113.43C85.4439 113.839 85.429 114.317 85.6149 114.736L90.3902 125.471C90.4784 125.669 90.607 125.848 90.7685 125.993C96.3173 131.004 102.276 135.563 108.566 139.612C109.172 140.003 109.969 139.911 110.479 139.402C120.132 129.778 130.847 121.212 142.37 113.91C143.002 113.51 143.237 112.717 142.938 112.033C140.214 105.808 141.341 98.2664 144.719 92.3072C146.775 88.6814 149.556 85.5596 152.702 82.8021C153.896 81.7564 152.934 79.8286 151.378 80.1537C150.26 80.3872 149.129 80.546 147.982 80.6027Z" fill="#69B3FF"/>
<path fill-rule="evenodd" clip-rule="evenodd" d="M121.453 39.2712C121.759 40.1586 121.724 40.1708 122.029 41.0582C122.334 41.9445 122.274 41.9652 122.579 42.8515C122.885 43.7389 122.915 43.7288 123.22 44.6162C123.526 45.5031 123.559 45.4915 123.864 46.3788C124.17 47.2662 124.095 47.2917 124.401 48.1796C124.706 49.067 124.756 49.05 125.062 49.9374C125.367 50.8248 125.42 50.8068 125.725 51.6947C126.031 52.5827 125.971 52.6033 126.277 53.4912C126.583 54.3792 126.64 54.3596 126.946 55.2475C127.251 56.1349 127.315 56.1132 127.62 57C127.926 57.888 127.909 57.8938 128.215 58.7817C128.521 59.6702 128.457 59.6919 128.763 60.5798C129.069 61.4682 128.977 61.4995 129.283 62.3879C129.589 63.278 129.71 63.2367 130.016 64.1267C130.323 65.0162 130.222 65.0506 130.528 65.9407C130.647 66.2875 131.024 66.6031 131.392 66.6105C132.333 66.629 132.333 66.6518 133.274 66.6703C134.214 66.6888 134.217 66.5347 135.157 66.5533C136.099 66.5718 136.098 66.5888 137.04 66.6073C137.98 66.6258 137.98 66.6475 138.921 66.6661C139.862 66.6846 139.863 66.6592 140.805 66.6777C141.746 66.6962 141.748 66.5851 142.689 66.6036C143.631 66.6221 143.629 66.7502 144.57 66.7688C145.512 66.7873 145.511 66.827 146.453 66.8455C147.395 66.8641 147.395 66.8519 148.337 66.8704C149.279 66.889 149.277 66.9822 150.217 67.0007C151.159 67.0192 151.164 66.7979 152.106 66.8164C153.048 66.835 153.046 66.9626 153.988 66.9811C154.93 66.9996 154.933 66.8471 155.875 66.8657C156.819 66.8842 156.816 67.043 157.76 67.0616C158.704 67.0801 158.704 67.0902 159.648 67.1087C160.48 67.1251 160.841 68.1634 160.175 68.6616C159.422 69.2255 159.394 69.1874 158.641 69.7513C157.89 70.3146 157.947 70.3904 157.195 70.9537C156.442 71.5171 156.379 71.4334 155.627 71.9968C154.874 72.5607 154.898 72.5924 154.146 73.1558C153.393 73.7197 153.352 73.6651 152.599 74.229C151.847 74.7924 151.941 74.9179 151.189 75.4818C150.436 76.0456 150.355 75.9387 149.603 76.5026C148.849 77.067 148.929 77.1718 148.175 77.7362C147.423 78.3001 147.358 78.2149 146.605 78.7793C145.853 79.3427 145.782 79.2489 145.03 79.8123C144.276 80.3767 144.429 80.5784 143.676 81.1423C142.923 81.7067 142.912 81.6924 142.158 82.2569C141.405 82.8213 141.294 82.6736 140.54 83.238C139.785 83.8029 139.884 83.9326 139.129 84.4981C138.374 85.0631 138.292 84.954 137.537 85.5195C137.243 85.7397 137.216 86.1405 137.323 86.4916C137.596 87.389 137.474 87.4261 137.747 88.3241C138.019 89.2205 138.13 89.1871 138.403 90.084C138.677 90.982 138.507 91.0328 138.78 91.9308C139.053 92.8283 139.257 92.7669 139.53 93.6643C139.803 94.5623 139.642 94.611 139.915 95.509C140.188 96.407 140.369 96.3524 140.642 97.2499C140.915 98.1479 140.872 98.1611 141.145 99.0596C141.418 99.9576 141.305 99.992 141.578 100.891C141.852 101.789 142.01 101.741 142.283 102.639C142.556 103.537 142.42 103.578 142.693 104.476C142.967 105.374 143.069 105.343 143.342 106.242C143.616 107.14 143.44 107.193 143.714 108.092C143.987 108.991 144.063 108.968 144.336 109.867C144.61 110.767 144.718 110.734 144.993 111.635C145.267 112.535 145.061 112.597 145.335 113.497C145.577 114.291 144.822 114.868 144.14 114.392C143.369 113.853 143.302 113.948 142.532 113.409C141.762 112.87 141.792 112.828 141.022 112.29C140.252 111.751 140.248 111.755 139.478 111.216C138.707 110.677 138.72 110.66 137.95 110.121C137.179 109.582 137.167 109.598 136.396 109.059C135.626 108.52 135.659 108.473 134.889 107.934C134.118 107.395 134.156 107.341 133.385 106.802C132.614 106.262 132.563 106.334 131.792 105.794C131.021 105.255 131.003 105.28 130.232 104.741C129.462 104.202 129.425 104.254 128.655 103.715C127.884 103.176 127.925 103.118 127.153 102.578C126.382 102.039 126.411 101.998 125.64 101.458C124.869 100.919 124.845 100.952 124.074 100.412C123.301 99.8724 123.311 99.8575 122.538 99.3169C121.766 98.7769 121.704 98.8648 120.931 98.3242C120.63 98.114 120.323 98.097 120.021 98.3067C119.248 98.8431 119.249 98.8447 118.477 99.381C117.705 99.9163 117.645 99.83 116.873 100.365C116.101 100.902 116.062 100.847 115.289 101.383C114.517 101.919 114.54 101.951 113.767 102.487C112.995 103.024 112.969 102.987 112.197 103.524C111.424 104.06 111.477 104.136 110.705 104.673C109.932 105.209 109.864 105.111 109.091 105.647C108.318 106.184 108.333 106.205 107.56 106.742C106.787 107.279 106.909 107.453 106.136 107.99C105.364 108.527 105.314 108.455 104.541 108.991C103.769 109.527 103.832 109.618 103.059 110.155C102.286 110.692 102.274 110.675 101.501 111.212C100.728 111.749 100.59 111.552 99.8164 112.089C99.0417 112.627 99.1161 112.733 98.3414 113.271C97.5673 113.809 97.6071 113.865 96.8324 114.403C96.1491 114.878 95.1119 114.137 95.3563 113.344C95.6326 112.447 95.8531 112.515 96.1294 111.618C96.4057 110.722 96.2485 110.674 96.5248 109.778C96.8011 108.881 96.7368 108.861 97.0131 107.965C97.2894 107.068 97.4897 107.129 97.766 106.233C98.0423 105.336 98.0487 105.338 98.325 104.441C98.6013 103.544 98.6092 103.546 98.8855 102.649C99.1618 101.753 99.1427 101.747 99.419 100.849C99.6958 99.9518 99.5471 99.9062 99.8239 99.0088C100.1 98.1113 100.186 98.1378 100.463 97.2404C100.739 96.3434 100.758 96.3498 101.034 95.4529C101.311 94.5554 101.218 94.5274 101.494 93.6299C101.771 92.7319 101.774 92.733 102.051 91.8355C102.328 90.9375 102.471 90.9815 102.747 90.0835C103.024 89.1839 102.966 89.1665 103.243 88.2669C103.52 87.3678 103.471 87.3525 103.748 86.4534C103.856 86.1029 103.745 85.7064 103.452 85.485C102.701 84.9185 102.745 84.8603 101.995 84.2943C101.245 83.7283 101.118 83.895 100.369 83.3296C99.6177 82.763 99.7011 82.654 98.9503 82.0874C98.2001 81.5214 98.1331 81.6093 97.3829 81.0433C96.6321 80.4768 96.6794 80.4148 95.9286 79.8483C95.1778 79.2818 95.2224 79.2235 94.4716 78.657C93.7208 78.0905 93.6842 78.1392 92.9334 77.5726C92.182 77.0056 92.105 77.1072 91.3542 76.5402C90.6029 75.9736 90.698 75.8487 89.9467 75.2821C89.1964 74.7161 89.1842 74.732 88.4339 74.166C87.6826 73.599 87.6167 73.6858 86.8654 73.1192C86.1141 72.5522 86.1688 72.4807 85.4175 71.9142C84.6661 71.3471 84.6433 71.3768 83.892 70.8097C83.1391 70.2421 83.2092 70.15 82.4563 69.5824C81.7039 69.0143 81.6332 69.1075 80.8808 68.5393C80.2166 68.0384 80.5902 66.8842 81.4228 66.871C82.3643 66.8556 82.3633 66.8074 83.3048 66.7921C84.2448 66.7767 84.2464 66.8546 85.1863 66.8392C86.1279 66.8238 86.1279 66.8127 87.0694 66.7974C88.0099 66.782 88.0094 66.7386 88.9504 66.7232C89.8919 66.7084 89.8935 66.8159 90.8356 66.8005C91.7766 66.7852 91.7782 66.8593 92.7192 66.844C93.6608 66.8286 93.6587 66.7063 94.6007 66.6909C95.5428 66.6756 95.5428 66.6909 96.4849 66.6761C97.427 66.6608 97.427 66.6608 98.3691 66.6459C99.3101 66.6306 99.3117 66.7365 100.253 66.7211C101.195 66.7058 101.191 66.4887 102.133 66.4733C103.076 66.458 103.078 66.6031 104.02 66.5877C104.963 66.5723 104.961 66.5019 105.904 66.4871C106.848 66.4717 106.849 66.558 107.793 66.5427C108.737 66.5273 108.735 66.3828 109.678 66.3674C110.046 66.3616 110.404 66.2446 110.525 65.8978C110.833 65.0115 110.859 65.0205 111.167 64.1341C111.475 63.2489 111.451 63.2404 111.76 62.3551C112.068 61.4688 112.136 61.4921 112.444 60.6057C112.753 59.7199 112.644 59.6818 112.952 58.796C113.261 57.9097 113.243 57.9033 113.552 57.0164C113.86 56.1301 113.963 56.1656 114.271 55.2793C114.579 54.3929 114.508 54.368 114.816 53.4812C115.125 52.5943 115.105 52.5874 115.414 51.7006C115.723 50.8132 115.689 50.802 115.998 49.9147C116.307 49.0288 116.34 49.0405 116.649 48.1547C116.958 47.2673 117.011 47.2858 117.32 46.399C117.629 45.5121 117.579 45.4946 117.888 44.6078C118.197 43.7204 118.323 43.7643 118.633 42.8769C118.942 41.9879 118.939 41.9874 119.249 41.0984C119.558 40.2094 119.342 40.1348 119.651 39.2463C119.924 38.4622 121.183 38.486 121.453 39.2712Z" fill="#FFB569"/>
<path fill-rule="evenodd" clip-rule="evenodd" d="M121.453 39.2712C121.759 40.1586 121.724 40.1708 122.029 41.0582C122.334 41.9445 122.274 41.9652 122.579 42.8515C122.885 43.7389 122.915 43.7288 123.22 44.6162C123.526 45.5031 123.559 45.4915 123.864 46.3788C124.17 47.2662 124.095 47.2917 124.401 48.1796C124.706 49.067 124.756 49.05 125.062 49.9374C125.367 50.8248 125.42 50.8068 125.725 51.6947C126.031 52.5827 125.971 52.6033 126.277 53.4912C126.583 54.3792 126.64 54.3596 126.946 55.2475C127.251 56.1349 127.315 56.1132 127.62 57C127.926 57.888 127.909 57.8938 128.215 58.7817C128.521 59.6702 128.457 59.6919 128.763 60.5798C129.069 61.4682 128.977 61.4995 129.283 62.3879C129.589 63.278 129.71 63.2367 130.016 64.1267C130.323 65.0162 130.222 65.0506 130.528 65.9407C130.647 66.2875 131.024 66.6031 131.392 66.6105C132.333 66.629 132.333 66.6518 133.274 66.6703C134.214 66.6888 134.217 66.5348 135.157 66.5533C136.099 66.5718 136.098 66.5888 137.04 66.6073C137.98 66.6258 137.98 66.6475 138.921 66.6661C139.863 66.6846 139.863 66.6592 140.805 66.6777C141.746 66.6962 141.748 66.5851 142.689 66.6036C143.631 66.6221 143.629 66.7502 144.57 66.7688C145.512 66.7873 145.511 66.827 146.453 66.8455C147.395 66.8641 147.395 66.8519 148.337 66.8704C149.279 66.889 149.277 66.9822 150.217 67.0007C151.159 67.0192 151.164 66.7979 152.106 66.8164C153.048 66.835 153.046 66.9626 153.988 66.9811C154.93 66.9996 154.933 66.8471 155.875 66.8657C156.819 66.8842 156.816 67.043 157.76 67.0616C158.704 67.0801 158.704 67.0902 159.648 67.1087C160.48 67.1251 160.841 68.1634 160.175 68.6616C159.422 69.2255 159.394 69.1874 158.641 69.7513C157.89 70.3146 157.947 70.3904 157.195 70.9537C156.442 71.5171 156.379 71.4334 155.627 71.9968C154.874 72.5607 154.898 72.5924 154.146 73.1558C153.393 73.7197 153.352 73.6651 152.599 74.229C151.847 74.7924 151.941 74.9179 151.189 75.4818C150.436 76.0456 150.355 75.9387 149.603 76.5026C148.849 77.067 148.929 77.1718 148.175 77.7362C147.423 78.3001 147.358 78.2149 146.605 78.7793C145.853 79.3427 145.782 79.2489 145.03 79.8123C144.276 80.3767 144.429 80.5784 143.676 81.1423C142.923 81.7067 142.912 81.6924 142.158 82.2569C141.405 82.8213 141.294 82.6736 140.54 83.238C139.785 83.8029 139.884 83.9326 139.129 84.4981C138.374 85.0631 138.292 84.954 137.537 85.5195C137.243 85.7397 137.216 86.1405 137.323 86.4916C137.596 87.389 137.474 87.4261 137.747 88.3241C138.019 89.2205 138.13 89.1871 138.403 90.084C138.677 90.982 138.507 91.0328 138.78 91.9308C139.053 92.8283 139.257 92.7669 139.53 93.6643C139.803 94.5623 139.642 94.611 139.915 95.509C140.188 96.407 140.369 96.3524 140.642 97.2499C140.915 98.1479 140.872 98.1611 141.145 99.0596C141.418 99.9576 141.305 99.992 141.578 100.891C141.852 101.789 142.01 101.741 142.283 102.639C142.556 103.537 142.42 103.578 142.693 104.476C142.967 105.374 143.069 105.343 143.342 106.242C143.616 107.14 143.44 107.193 143.714 108.092C143.987 108.991 144.063 108.968 144.336 109.867C144.61 110.767 144.718 110.734 144.993 111.635C145.267 112.535 145.061 112.597 145.335 113.497C145.577 114.291 144.822 114.868 144.14 114.392C143.369 113.853 143.302 113.948 142.532 113.409C141.762 112.87 141.792 112.828 141.022 112.29C140.252 111.751 140.248 111.755 139.478 111.216C138.707 110.677 138.72 110.66 137.95 110.121C137.179 109.582 137.167 109.598 136.396 109.059C135.626 108.52 135.659 108.473 134.889 107.934C134.118 107.395 134.156 107.341 133.385 106.802C132.614 106.262 132.563 106.334 131.792 105.794C131.021 105.255 131.003 105.28 130.232 104.741C129.462 104.202 129.425 104.254 128.655 103.715C127.884 103.176 127.925 103.118 127.153 102.578C126.382 102.039 126.411 101.998 125.64 101.458C124.869 100.919 124.845 100.952 124.074 100.412C123.301 99.8724 123.311 99.8575 122.538 99.3169C121.766 98.7769 121.704 98.8648 120.931 98.3242C120.63 98.114 120.323 98.097 120.021 98.3067C119.248 98.8431 119.249 98.8447 118.477 99.381C117.705 99.9163 117.645 99.83 116.873 100.365C116.101 100.902 116.062 100.847 115.289 101.383C114.517 101.919 114.54 101.951 113.767 102.487C112.995 103.024 112.969 102.987 112.197 103.524C111.424 104.06 111.477 104.136 110.705 104.673C109.932 105.209 109.864 105.111 109.091 105.647C108.318 106.184 108.333 106.205 107.56 106.742C106.787 107.279 106.909 107.453 106.136 107.99C105.364 108.527 105.314 108.455 104.541 108.991C103.769 109.527 103.832 109.618 103.059 110.155C102.286 110.692 102.274 110.675 101.501 111.212C100.728 111.749 100.59 111.552 99.8164 112.089C99.0417 112.627 99.1161 112.733 98.3414 113.271C97.5673 113.809 97.6071 113.865 96.8324 114.403C96.1491 114.878 95.1119 114.137 95.3563 113.344C95.6326 112.447 95.8531 112.515 96.1294 111.618C96.4057 110.722 96.2485 110.674 96.5248 109.778C96.8011 108.881 96.7368 108.861 97.0131 107.965C97.2894 107.068 97.4897 107.129 97.766 106.233C98.0423 105.336 98.0487 105.338 98.325 104.441C98.6013 103.544 98.6092 103.546 98.8855 102.649C99.1618 101.753 99.1427 101.747 99.419 100.849C99.6958 99.9518 99.5471 99.9062 99.8239 99.0088C100.1 98.1113 100.186 98.1378 100.463 97.2404C100.739 96.3434 100.758 96.3498 101.034 95.4529C101.311 94.5554 101.218 94.5274 101.494 93.6299C101.771 92.7319 101.774 92.733 102.051 91.8355C102.328 90.9375 102.471 90.9815 102.747 90.0835C103.024 89.1839 102.966 89.1665 103.243 88.2669C103.52 87.3678 103.471 87.3525 103.748 86.4535C103.856 86.1029 103.745 85.7064 103.452 85.485C102.701 84.9185 102.745 84.8603 101.995 84.2943C101.245 83.7283 101.118 83.895 100.369 83.3296C99.6177 82.763 99.7011 82.654 98.9503 82.0874C98.2001 81.5214 98.1331 81.6093 97.3829 81.0433C96.6321 80.4768 96.6794 80.4148 95.9286 79.8483C95.1778 79.2818 95.2224 79.2235 94.4716 78.657C93.7208 78.0905 93.6842 78.1392 92.9334 77.5726C92.182 77.0056 92.105 77.1072 91.3542 76.5402C90.6029 75.9736 90.698 75.8487 89.9467 75.2821C89.1964 74.7161 89.1842 74.732 88.4339 74.166C87.6826 73.599 87.6167 73.6858 86.8654 73.1192C86.1141 72.5522 86.1688 72.4807 85.4175 71.9142C84.6661 71.3471 84.6433 71.3768 83.892 70.8097C83.1391 70.2421 83.2092 70.15 82.4563 69.5824C81.7039 69.0143 81.6332 69.1075 80.8808 68.5393C80.2166 68.0384 80.5902 66.8842 81.4228 66.871C82.3643 66.8556 82.3633 66.8074 83.3048 66.7921C84.2448 66.7767 84.2464 66.8546 85.1863 66.8392C86.1279 66.8238 86.1279 66.8127 87.0694 66.7974C88.0099 66.782 88.0094 66.7386 88.9504 66.7232C89.8919 66.7084 89.8935 66.8159 90.8356 66.8005C91.7766 66.7852 91.7782 66.8593 92.7192 66.844C93.6608 66.8286 93.6587 66.7063 94.6007 66.6909C95.5428 66.6756 95.5428 66.6909 96.4849 66.6761C97.427 66.6608 97.427 66.6608 98.3691 66.6459C99.3101 66.6306 99.3117 66.7365 100.253 66.7211C101.195 66.7058 101.191 66.4887 102.133 66.4733C103.076 66.458 103.078 66.6031 104.02 66.5877C104.963 66.5723 104.961 66.5019 105.904 66.4871C106.848 66.4717 106.849 66.558 107.793 66.5427C108.737 66.5273 108.735 66.3828 109.678 66.3674C110.046 66.3616 110.404 66.2446 110.525 65.8978C110.833 65.0115 110.859 65.0205 111.167 64.1341C111.475 63.2489 111.451 63.2404 111.76 62.3551C112.068 61.4688 112.136 61.4921 112.444 60.6057C112.753 59.7199 112.644 59.6818 112.952 58.796C113.261 57.9097 113.243 57.9033 113.552 57.0164C113.86 56.1301 113.963 56.1656 114.271 55.2793C114.579 54.3929 114.508 54.368 114.816 53.4812C115.125 52.5943 115.105 52.5874 115.414 51.7006C115.723 50.8132 115.689 50.802 115.998 49.9147C116.307 49.0288 116.34 49.0405 116.649 48.1547C116.958 47.2673 117.011 47.2858 117.32 46.399C117.629 45.5121 117.579 45.4946 117.888 44.6078C118.197 43.7204 118.323 43.7643 118.633 42.8769C118.942 41.9879 118.939 41.9874 119.249 41.0984C119.558 40.2094 119.342 40.1348 119.651 39.2463C119.924 38.4622 121.183 38.486 121.453 39.2712Z" stroke="#414C58" stroke-width="0.4593" stroke-linecap="round"/>
<path fill-rule="evenodd" clip-rule="evenodd" d="M137.135 109.641C138.001 110.247 137.973 110.287 138.839 110.893C139.705 111.499 139.814 111.344 140.68 111.95C141.548 112.557 141.502 112.622 142.37 113.229C143.237 113.836 143.255 113.81 144.123 114.418C144.804 114.894 145.58 114.291 145.338 113.496C145.07 112.614 145.149 112.59 144.88 111.708C144.611 110.825 144.747 110.783 144.478 109.9C144.209 109.017 144.223 109.012 143.954 108.129C143.685 107.246 143.596 107.273 143.327 106.389C143.058 105.504 143.024 105.514 142.754 104.629C142.485 103.744 142.538 103.728 142.269 102.843C142.189 102.58 141.782 102.521 141.623 102.744C141.056 103.538 140.975 103.482 140.408 104.275C139.84 105.069 139.975 105.165 139.408 105.959C138.84 106.755 138.798 106.725 138.229 107.52C137.661 108.315 137.7 108.343 137.132 109.138C137.025 109.288 136.985 109.535 137.135 109.641Z" fill="#414C58"/>
<path fill-rule="evenodd" clip-rule="evenodd" d="M137.135 109.641C138.001 110.247 137.973 110.287 138.839 110.893C139.705 111.499 139.814 111.344 140.68 111.95C141.548 112.557 141.502 112.622 142.37 113.229C143.237 113.836 143.255 113.81 144.123 114.418C144.804 114.894 145.58 114.291 145.338 113.496C145.07 112.614 145.149 112.59 144.88 111.708C144.611 110.825 144.747 110.783 144.478 109.9C144.209 109.017 144.223 109.012 143.954 108.129C143.685 107.246 143.596 107.273 143.327 106.389C143.058 105.504 143.024 105.514 142.754 104.629C142.485 103.744 142.538 103.728 142.269 102.843C142.189 102.58 141.782 102.521 141.623 102.744C141.056 103.538 140.975 103.482 140.408 104.275C139.84 105.069 139.975 105.165 139.408 105.959C138.84 106.755 138.798 106.725 138.229 107.52C137.661 108.315 137.7 108.343 137.132 109.138C137.025 109.288 136.985 109.535 137.135 109.641Z" stroke="#414C58" stroke-width="0.4593" stroke-linecap="round"/>
<path d="M92.9952 77.6368C93.6647 76.9501 93.5393 76.8293 94.2088 76.1426C94.8767 75.4575 94.8405 75.4225 95.5085 74.7374C96.1769 74.0512 96.1769 74.0507 96.8453 73.3645C97.5148 72.6778 97.6902 72.8472 98.3597 72.1599C99.0292 71.4732 98.942 71.389 99.6115 70.7018C100.281 70.0145 100.278 70.0119 100.948 69.3252C101.619 68.6368 101.658 68.675 102.329 67.9867C103 67.2983 102.978 67.2772 103.649 66.5889" stroke="#414C58" stroke-width="0.4593" stroke-linecap="round"/>
<path d="M114.465 101.528C114.993 100.739 115.144 100.839 115.672 100.051C116.201 99.262 116.239 99.2868 116.768 98.4979C117.297 97.7095 117.228 97.6635 117.756 96.8746C118.285 96.0857 118.375 96.1455 118.903 95.3566C119.432 94.5682 119.28 94.4676 119.809 93.6792C120.337 92.8919 120.289 92.8601 120.817 92.0723C121.345 91.2844 121.495 91.384 122.024 90.5961C122.553 89.8072 122.595 89.8353 123.123 89.0458C123.652 88.258 123.473 88.1388 124.001 87.3505C124.53 86.5615 124.566 86.5854 125.094 85.7959C125.623 85.0075 125.779 85.1108 126.307 84.3224C126.836 83.533 126.817 83.5197 127.346 82.7308C127.875 81.9419 127.872 81.9398 128.4 81.1509C128.929 80.3614 128.839 80.3011 129.368 79.5116C129.897 78.7222 129.822 78.6724 130.351 77.8824C130.881 77.093 130.887 77.0972 131.416 76.3073C131.945 75.5184 131.94 75.5157 132.469 74.7268C132.998 73.9374 133.03 73.9585 133.559 73.1691C134.089 72.3791 134.183 72.4421 134.712 71.6522C135.242 70.8622 135.137 70.7928 135.666 70.0029C136.197 69.2118 136.293 69.2759 136.824 68.4849C137.355 67.6938 137.403 67.7261 137.934 66.9351" stroke="#414C58" stroke-width="0.4593" stroke-linecap="round"/>
<path fill-rule="evenodd" clip-rule="evenodd" d="M120.707 162.287C121.527 162.797 121.566 162.095 122.451 161.705C123.335 161.315 123.296 161.228 124.181 160.838C125.066 160.447 125.064 160.444 125.949 160.053C126.834 159.663 126.856 159.712 127.74 159.322C128.625 158.931 128.63 158.944 129.515 158.554C130.399 158.163 130.345 158.041 131.231 157.651C132.115 157.26 132.14 157.317 133.024 156.926C133.91 156.536 133.914 156.547 134.8 156.157C135.684 155.766 135.691 155.78 136.575 155.39C137.46 154.999 137.404 154.872 138.288 154.481C139.173 154.091 139.242 154.244 140.126 153.854C141.009 153.464 140.943 153.314 141.826 152.924C142.71 152.534 142.806 152.748 143.69 152.358C144.575 151.967 144.52 151.844 145.405 151.454C146.289 151.064 146.323 151.139 147.207 150.749C148.092 150.358 148.015 150.186 148.9 149.795C149.785 149.405 149.852 149.555 150.736 149.164C151.621 148.774 151.56 148.637 152.446 148.246C153.331 147.855 153.324 147.841 154.209 147.45C155.094 147.059 155.141 147.165 156.026 146.774C156.912 146.383 156.95 146.469 157.836 146.078C158.722 145.687 158.678 145.589 159.564 145.198C160.448 144.807 160.434 144.776 161.319 144.385C162.204 143.994 162.211 144.008 163.096 143.617C163.982 143.226 163.992 143.249 164.878 142.858C165.764 142.466 165.776 142.493 166.662 142.102C167.549 141.71 167.501 141.602 168.389 141.211C169.276 140.819 169.593 141.273 170.13 140.468C170.652 139.687 170.299 139.578 170.299 138.641C170.299 137.704 170.324 137.704 170.324 136.766C170.324 135.829 170.149 135.829 170.149 134.891C170.149 133.954 170.075 133.954 170.075 133.016C170.075 132.079 170.076 132.079 170.076 131.142C170.076 130.204 170.089 130.204 170.089 129.266C170.089 128.33 170.288 128.33 170.288 127.394C170.288 126.456 170.308 126.456 170.308 125.519C170.308 124.582 170.147 124.582 170.147 123.645C170.147 122.708 170.195 122.708 170.195 121.771C170.195 120.833 170.304 120.833 170.304 119.896C170.304 118.959 170.262 118.959 170.262 118.02C170.262 117.083 170.158 117.083 170.158 116.145C170.158 115.208 170.223 115.208 170.223 114.27C170.223 113.332 170.163 113.332 170.163 112.394C170.163 111.455 170.229 111.455 170.229 110.517C170.229 109.58 170.305 109.58 170.305 108.643C170.305 107.705 170.203 107.705 170.203 106.766C170.203 105.828 170.111 105.828 170.111 104.89C170.111 103.951 170.113 103.951 170.113 103.012C170.113 102.073 170.153 102.073 170.153 101.132C170.153 100.192 170.984 99.7795 170.184 99.2818C169.364 98.7719 169.355 99.7234 168.471 100.114C167.586 100.504 167.573 100.474 166.688 100.864C165.803 101.255 165.804 101.256 164.918 101.646C164.034 102.037 164.037 102.045 163.153 102.435C162.269 102.825 162.2 102.669 161.315 103.06C160.43 103.45 160.518 103.649 159.633 104.04C158.749 104.43 158.679 104.273 157.795 104.663C156.909 105.054 156.946 105.135 156.06 105.525C155.176 105.916 155.149 105.856 154.264 106.246C153.379 106.637 153.407 106.699 152.522 107.089C151.637 107.48 151.639 107.484 150.754 107.875C149.871 108.264 149.839 108.194 148.956 108.584C148.072 108.974 148.11 109.058 147.226 109.448C146.34 109.839 146.288 109.721 145.403 110.111C144.519 110.501 144.504 110.467 143.62 110.858C142.735 111.248 142.729 111.235 141.844 111.626C140.959 112.017 140.988 112.08 140.103 112.47C139.218 112.861 139.253 112.94 138.368 113.331C137.482 113.722 137.476 113.707 136.591 114.097C135.706 114.488 135.669 114.405 134.784 114.796C133.898 115.187 133.927 115.253 133.041 115.643C132.156 116.034 132.2 116.134 131.314 116.525C130.43 116.915 130.38 116.803 129.495 117.193C128.609 117.585 128.671 117.723 127.786 118.114C126.9 118.505 126.853 118.4 125.968 118.791C125.081 119.182 125.123 119.277 124.237 119.667C123.35 120.059 123.307 119.962 122.419 120.354C121.532 120.746 121.125 120.289 120.588 121.094C120.067 121.874 120.741 122.066 120.741 123.003C120.741 123.941 120.615 123.941 120.615 124.878C120.615 125.816 120.746 125.816 120.746 126.753C120.746 127.69 120.696 127.69 120.696 128.628C120.696 129.565 120.706 129.565 120.706 130.503C120.706 131.44 120.591 131.44 120.591 132.378C120.591 133.315 120.576 133.315 120.576 134.251C120.576 135.188 120.617 135.188 120.617 136.126C120.617 137.062 120.695 137.062 120.695 137.999C120.695 138.937 120.745 138.937 120.745 139.874C120.745 140.811 120.748 140.811 120.748 141.748C120.748 142.686 120.647 142.686 120.647 143.624C120.647 144.561 120.7 144.561 120.7 145.499C120.7 146.436 120.757 146.436 120.757 147.374C120.757 148.312 120.762 148.312 120.762 149.251C120.762 150.189 120.729 150.189 120.729 151.127C120.729 152.064 120.725 152.064 120.725 153.001C120.725 153.94 120.522 153.94 120.522 154.878C120.522 155.816 120.596 155.816 120.596 156.755C120.596 157.693 120.691 157.693 120.691 158.632C120.691 159.572 120.867 159.599 120.654 160.515C120.431 161.47 119.906 161.789 120.707 162.287Z" fill="white" stroke="#414C58" stroke-width="0.4593" stroke-linecap="round" stroke-linejoin="round"/>
<path fill-rule="evenodd" clip-rule="evenodd" d="M190.94 108.195C190.095 107.822 190.153 107.693 189.308 107.32C188.462 106.946 188.468 106.934 187.623 106.56C186.777 106.187 186.747 106.255 185.902 105.882C185.057 105.508 185.057 105.507 184.212 105.133C183.367 104.76 183.319 104.866 182.473 104.493C181.628 104.119 181.617 104.143 180.771 103.769C179.926 103.396 179.945 103.353 179.1 102.98C178.255 102.606 178.287 102.534 177.442 102.16C176.596 101.786 176.598 101.781 175.752 101.407C174.906 101.033 174.884 101.084 174.038 100.71C173.19 100.335 173.19 100.337 172.342 99.9621C171.495 99.5878 171.474 99.6365 170.626 99.2622C170.402 99.1632 170.151 99.0192 169.928 99.1187C169.046 99.5126 169.106 99.6455 168.224 100.039C167.342 100.433 167.362 100.476 166.48 100.87C165.598 101.264 165.582 101.228 164.701 101.622C163.819 102.016 163.737 101.832 162.855 102.226C161.973 102.62 162.022 102.73 161.14 103.124C160.259 103.518 160.312 103.635 159.43 104.029C158.548 104.423 158.489 104.292 157.607 104.686C156.725 105.08 156.734 105.101 155.852 105.495C154.97 105.889 154.936 105.811 154.054 106.205C153.172 106.599 153.197 106.655 152.315 107.049C151.434 107.442 151.403 107.373 150.522 107.767C149.642 108.16 149.649 108.177 148.768 108.57C147.886 108.965 147.953 109.114 147.071 109.508C146.19 109.902 146.164 109.844 145.283 110.238C144.401 110.632 144.367 110.557 143.485 110.951C142.603 111.345 142.633 111.41 141.751 111.804C140.868 112.199 140.9 112.268 140.017 112.662C139.135 113.056 139.056 112.88 138.174 113.274C137.292 113.669 137.318 113.726 136.435 114.121C135.552 114.515 135.605 114.631 134.722 115.025C133.839 115.42 133.828 115.393 132.944 115.788C132.063 116.181 132.049 116.15 131.167 116.544C130.284 116.938 130.309 116.994 129.426 117.388C128.543 117.783 128.506 117.699 127.623 118.093C126.74 118.488 126.732 118.47 125.849 118.864C124.964 119.26 124.993 119.323 124.108 119.718C123.223 120.113 123.164 119.981 122.279 120.376C121.595 120.681 121.654 121.723 122.342 122.019C123.186 122.381 123.144 122.478 123.988 122.84C124.833 123.203 124.888 123.075 125.733 123.438C126.577 123.801 126.583 123.787 127.427 124.149C128.272 124.512 128.205 124.667 129.05 125.029C129.895 125.392 129.952 125.261 130.797 125.624C131.642 125.986 131.665 125.934 132.51 126.296C133.354 126.659 133.297 126.791 134.141 127.154C134.986 127.516 135.022 127.434 135.866 127.798C136.712 128.16 136.667 128.264 137.512 128.627C138.357 128.99 138.388 128.92 139.233 129.283C140.079 129.646 140.029 129.763 140.876 130.127C141.722 130.49 141.727 130.479 142.574 130.843C142.794 130.937 143.069 130.804 143.288 130.707C144.17 130.318 144.154 130.282 145.036 129.893C145.918 129.504 145.927 129.523 146.809 129.134C147.691 128.745 147.751 128.88 148.632 128.491C149.515 128.102 149.517 128.109 150.399 127.72C151.282 127.331 151.257 127.274 152.139 126.885C153.021 126.496 152.958 126.353 153.84 125.964C154.722 125.575 154.789 125.726 155.671 125.337C156.553 124.948 156.504 124.838 157.387 124.449C158.269 124.059 158.324 124.183 159.206 123.794C160.088 123.405 160.084 123.393 160.966 123.004C161.847 122.616 161.788 122.485 162.669 122.096C163.551 121.707 163.584 121.783 164.466 121.394C165.348 121.005 165.335 120.975 166.217 120.586C167.098 120.197 167.144 120.299 168.025 119.91C168.908 119.52 168.894 119.49 169.776 119.1C170.658 118.711 170.66 118.715 171.542 118.326C172.425 117.936 172.424 117.935 173.307 117.545C174.189 117.156 174.182 117.14 175.064 116.75C175.947 116.361 175.994 116.466 176.876 116.077C177.759 115.687 177.742 115.648 178.625 115.258C179.508 114.869 179.499 114.848 180.382 114.459C181.264 114.069 181.222 113.975 182.104 113.585C182.987 113.196 183.018 113.266 183.901 112.876C184.784 112.487 184.82 112.568 185.704 112.179C186.587 111.789 186.563 111.734 187.446 111.345C188.331 110.955 188.306 110.898 189.191 110.508C190.076 110.118 190.086 110.139 190.97 109.748C191.654 109.447 191.623 108.497 190.94 108.195Z" fill="white"/>
<path fill-rule="evenodd" clip-rule="evenodd" d="M190.94 108.195C190.095 107.822 190.153 107.693 189.308 107.32C188.462 106.946 188.468 106.934 187.623 106.56C186.777 106.187 186.747 106.255 185.902 105.882C185.057 105.508 185.057 105.507 184.212 105.133C183.367 104.76 183.319 104.866 182.473 104.493C181.628 104.119 181.617 104.143 180.771 103.769C179.926 103.396 179.945 103.353 179.1 102.98C178.255 102.606 178.287 102.534 177.442 102.16C176.596 101.786 176.598 101.781 175.752 101.407C174.906 101.033 174.884 101.084 174.038 100.71C173.19 100.335 173.19 100.337 172.342 99.9621C171.495 99.5878 171.474 99.6365 170.626 99.2622C170.402 99.1632 170.151 99.0192 169.928 99.1187C169.046 99.5126 169.106 99.6455 168.224 100.039C167.342 100.433 167.362 100.476 166.48 100.87C165.598 101.264 165.582 101.228 164.701 101.622C163.819 102.016 163.737 101.832 162.855 102.226C161.973 102.62 162.022 102.73 161.14 103.124C160.259 103.518 160.312 103.635 159.43 104.029C158.548 104.423 158.489 104.292 157.607 104.686C156.725 105.08 156.734 105.101 155.852 105.495C154.97 105.889 154.936 105.811 154.054 106.205C153.172 106.599 153.197 106.655 152.315 107.049C151.434 107.442 151.403 107.373 150.522 107.767C149.642 108.16 149.649 108.177 148.768 108.57C147.886 108.965 147.953 109.114 147.071 109.508C146.19 109.902 146.164 109.844 145.283 110.238C144.401 110.632 144.367 110.557 143.485 110.951C142.603 111.345 142.633 111.41 141.751 111.804C140.868 112.199 140.9 112.268 140.017 112.662C139.135 113.056 139.056 112.88 138.174 113.274C137.292 113.669 137.318 113.726 136.435 114.121C135.552 114.515 135.605 114.631 134.722 115.025C133.839 115.42 133.828 115.393 132.944 115.788C132.063 116.181 132.049 116.15 131.167 116.544C130.284 116.938 130.309 116.994 129.426 117.388C128.543 117.783 128.506 117.699 127.623 118.093C126.74 118.488 126.732 118.47 125.849 118.864C124.964 119.26 124.993 119.323 124.108 119.718C123.223 120.113 123.164 119.981 122.279 120.376C121.595 120.681 121.654 121.723 122.342 122.019C123.186 122.381 123.144 122.478 123.988 122.84C124.833 123.203 124.888 123.075 125.733 123.438C126.577 123.801 126.583 123.787 127.427 124.149C128.272 124.512 128.205 124.667 129.05 125.029C129.895 125.392 129.952 125.261 130.797 125.624C131.642 125.986 131.665 125.934 132.51 126.296C133.354 126.659 133.297 126.791 134.141 127.154C134.986 127.516 135.022 127.434 135.866 127.798C136.712 128.16 136.667 128.264 137.512 128.627C138.357 128.99 138.388 128.92 139.233 129.283C140.079 129.646 140.029 129.763 140.876 130.127C141.722 130.49 141.727 130.479 142.574 130.843C142.794 130.937 143.069 130.804 143.288 130.707C144.17 130.318 144.154 130.282 145.036 129.893C145.918 129.504 145.927 129.523 146.809 129.134C147.691 128.745 147.751 128.88 148.632 128.491C149.515 128.102 149.517 128.109 150.399 127.72C151.282 127.331 151.257 127.274 152.139 126.885C153.021 126.496 152.958 126.353 153.84 125.964C154.722 125.575 154.789 125.726 155.671 125.337C156.553 124.948 156.504 124.838 157.387 124.449C158.269 124.059 158.324 124.183 159.206 123.794C160.088 123.405 160.084 123.393 160.966 123.004C161.847 122.616 161.788 122.485 162.669 122.096C163.551 121.707 163.584 121.783 164.466 121.394C165.348 121.005 165.335 120.975 166.217 120.586C167.098 120.197 167.144 120.299 168.025 119.91C168.908 119.52 168.894 119.49 169.776 119.1C170.658 118.711 170.66 118.715 171.542 118.326C172.425 117.936 172.424 117.935 173.307 117.545C174.189 117.156 174.182 117.14 175.064 116.75C175.947 116.361 175.994 116.466 176.876 116.077C177.759 115.687 177.742 115.648 178.625 115.258C179.508 114.869 179.499 114.848 180.382 114.459C181.264 114.069 181.222 113.975 182.104 113.585C182.987 113.196 183.018 113.266 183.901 112.876C184.784 112.487 184.82 112.568 185.704 112.179C186.587 111.789 186.563 111.734 187.446 111.345C188.331 110.955 188.306 110.898 189.191 110.508C190.076 110.118 190.086 110.139 190.97 109.748C191.654 109.447 191.623 108.497 190.94 108.195Z" stroke="#414C58" stroke-width="0.4593" stroke-linecap="round" stroke-linejoin="round"/>
<path fill-rule="evenodd" clip-rule="evenodd" d="M120.674 162.445C119.85 162.955 119.765 161.974 118.877 161.584C117.988 161.193 118.013 161.138 117.124 160.748C116.236 160.357 116.205 160.428 115.316 160.037C114.428 159.647 114.401 159.708 113.513 159.317C112.624 158.927 112.629 158.918 111.74 158.527C110.851 158.137 110.879 158.074 109.991 157.684C109.102 157.293 109.137 157.215 108.248 156.825C107.359 156.434 107.28 156.615 106.391 156.224C105.502 155.833 105.496 155.848 104.607 155.458C103.719 155.067 103.741 155.016 102.853 154.625C101.964 154.234 101.954 154.257 101.066 153.866C100.179 153.476 100.205 153.417 99.3179 153.027C98.43 152.637 98.4524 152.586 97.5645 152.196C96.6755 151.805 96.692 151.769 95.8031 151.378C94.9152 150.988 94.8636 151.104 93.9757 150.714C93.0868 150.324 93.1203 150.249 92.2313 149.858C91.3429 149.468 91.2887 149.59 90.4003 149.2C89.5108 148.809 89.5688 148.679 88.6793 148.289C87.7909 147.898 87.8185 147.835 86.9301 147.444C86.0406 147.053 85.9535 147.251 85.064 146.861C84.1745 146.469 84.2457 146.309 83.3562 145.918C82.4668 145.527 82.4609 145.541 81.5714 145.149C80.683 144.759 80.6342 144.869 79.7457 144.478C78.8563 144.088 78.9291 143.924 78.0396 143.532C77.1501 143.142 77.0768 143.307 76.1873 142.916C75.2973 142.525 75.3366 142.437 74.4466 142.046C73.5555 141.654 73.5428 141.682 72.6517 141.29C71.7601 140.899 71.36 141.353 70.8186 140.546C70.2963 139.767 70.8531 139.578 70.8531 138.64C70.8531 137.703 70.7814 137.703 70.7814 136.765C70.7814 135.828 70.8802 135.828 70.8802 134.891C70.8802 133.953 70.9929 133.953 70.9929 133.016C70.9929 132.078 70.8382 132.078 70.8382 131.141C70.8382 130.203 70.9195 130.203 70.9195 129.266C70.9195 128.329 70.9259 128.329 70.9259 127.392C70.9259 126.455 70.9291 126.455 70.9291 125.518C70.9291 124.581 70.7468 124.581 70.7468 123.645C70.7468 122.707 70.8871 122.707 70.8871 121.769C70.8871 120.832 70.8951 120.832 70.8951 119.895C70.8951 118.957 70.7644 118.957 70.7644 118.02C70.7644 117.082 70.7378 117.082 70.7378 116.145C70.7378 115.207 70.7346 115.207 70.7346 114.269C70.7346 113.331 70.7559 113.331 70.7559 112.392C70.7559 111.454 70.9036 111.454 70.9036 110.516C70.9036 109.579 70.9535 109.579 70.9535 108.642C70.9535 107.703 70.9801 107.703 70.9801 106.765C70.9801 105.827 70.9541 105.827 70.9541 104.889C70.9541 103.95 70.8829 103.95 70.8829 103.012C70.8829 102.072 70.8425 102.072 70.8425 101.132C70.8425 100.191 70.0726 99.7604 70.8738 99.2643C71.698 98.7539 71.7362 99.6804 72.6246 100.071C73.5125 100.461 73.5391 100.402 74.4275 100.792C75.3159 101.183 75.2644 101.3 76.1528 101.69C77.0412 102.081 77.1177 101.908 78.0056 102.298C78.894 102.689 78.8435 102.803 79.7319 103.193C80.6203 103.584 80.5991 103.632 81.4875 104.023C82.3759 104.414 82.4057 104.347 83.2941 104.737C84.1825 105.128 84.1628 105.173 85.0518 105.563C85.9402 105.954 85.9588 105.912 86.8472 106.302C87.7361 106.693 87.7967 106.556 88.6851 106.946C89.5741 107.337 89.5576 107.373 90.4465 107.764C91.3334 108.154 91.3509 108.114 92.2382 108.504C93.1261 108.894 93.0624 109.038 93.9502 109.428C94.8392 109.819 94.81 109.884 95.6989 110.275C96.5868 110.665 96.6665 110.485 97.5544 110.876C98.4428 111.266 98.4136 111.332 99.3025 111.723C100.191 112.113 100.173 112.155 101.061 112.545C101.95 112.936 101.94 112.958 102.83 113.349C103.718 113.74 103.767 113.629 104.656 114.02C105.545 114.41 105.467 114.587 106.356 114.977C107.246 115.368 107.325 115.19 108.214 115.58C109.104 115.971 109.104 115.971 109.993 116.362C110.882 116.752 110.899 116.712 111.788 117.103C112.677 117.494 112.58 117.715 113.469 118.105C114.359 118.496 114.437 118.319 115.327 118.71C116.217 119.101 116.153 119.245 117.043 119.636C117.934 120.028 117.929 120.04 118.82 120.431C119.711 120.823 120.02 120.374 120.562 121.181C121.084 121.96 120.579 122.065 120.579 123.002C120.579 123.94 120.551 123.94 120.551 124.877C120.551 125.815 120.713 125.815 120.713 126.752C120.713 127.689 120.711 127.689 120.711 128.627C120.711 129.564 120.72 129.564 120.72 130.502C120.72 131.44 120.619 131.44 120.619 132.377C120.619 133.313 120.554 133.313 120.554 134.25C120.554 135.188 120.531 135.188 120.531 136.125C120.531 137.062 120.534 137.062 120.534 137.998C120.534 138.935 120.686 138.935 120.686 139.873C120.686 140.81 120.741 140.81 120.741 141.747C120.741 142.685 120.617 142.685 120.617 143.623C120.617 144.561 120.653 144.561 120.653 145.498C120.653 146.436 120.611 146.436 120.611 147.374C120.611 148.312 120.738 148.312 120.738 149.25C120.738 150.188 120.572 150.188 120.572 151.126C120.572 152.064 120.674 152.064 120.674 153.001C120.674 153.939 120.712 153.939 120.712 154.877C120.712 155.815 120.516 155.815 120.516 156.754C120.516 157.692 120.711 157.692 120.711 158.631C120.711 159.571 120.53 159.569 120.759 160.482C121.018 161.512 121.476 161.949 120.674 162.445Z" fill="#E7E9EA"/>
<path fill-rule="evenodd" clip-rule="evenodd" d="M120.674 162.445C119.85 162.955 119.765 161.974 118.877 161.584C117.988 161.193 118.013 161.138 117.124 160.748C116.236 160.357 116.205 160.428 115.316 160.037C114.428 159.647 114.401 159.708 113.513 159.317C112.624 158.927 112.629 158.918 111.74 158.527C110.851 158.137 110.879 158.074 109.991 157.684C109.102 157.293 109.137 157.215 108.248 156.825C107.359 156.434 107.28 156.615 106.391 156.224C105.502 155.833 105.496 155.848 104.607 155.458C103.719 155.067 103.741 155.016 102.853 154.625C101.964 154.234 101.954 154.257 101.066 153.866C100.179 153.476 100.205 153.417 99.3179 153.027C98.43 152.637 98.4524 152.586 97.5645 152.196C96.6755 151.805 96.692 151.769 95.8031 151.378C94.9152 150.988 94.8636 151.104 93.9757 150.714C93.0868 150.324 93.1203 150.249 92.2313 149.858C91.3429 149.468 91.2887 149.59 90.4003 149.2C89.5108 148.809 89.5688 148.679 88.6793 148.289C87.7909 147.898 87.8185 147.835 86.9301 147.444C86.0406 147.053 85.9535 147.251 85.064 146.861C84.1745 146.469 84.2457 146.309 83.3562 145.918C82.4668 145.527 82.4609 145.541 81.5714 145.149C80.683 144.759 80.6342 144.869 79.7457 144.478C78.8563 144.088 78.9291 143.924 78.0396 143.532C77.1501 143.142 77.0768 143.307 76.1873 142.916C75.2973 142.525 75.3366 142.437 74.4466 142.046C73.5555 141.654 73.5428 141.682 72.6517 141.29C71.7601 140.899 71.36 141.353 70.8186 140.546C70.2963 139.767 70.8531 139.578 70.8531 138.64C70.8531 137.703 70.7814 137.703 70.7814 136.765C70.7814 135.828 70.8802 135.828 70.8802 134.891C70.8802 133.953 70.9929 133.953 70.9929 133.016C70.9929 132.078 70.8382 132.078 70.8382 131.141C70.8382 130.203 70.9195 130.203 70.9195 129.266C70.9195 128.329 70.9259 128.329 70.9259 127.392C70.9259 126.455 70.9291 126.455 70.9291 125.518C70.9291 124.581 70.7468 124.581 70.7468 123.645C70.7468 122.707 70.8871 122.707 70.8871 121.769C70.8871 120.832 70.8951 120.832 70.8951 119.895C70.8951 118.957 70.7644 118.957 70.7644 118.02C70.7644 117.082 70.7378 117.082 70.7378 116.145C70.7378 115.207 70.7346 115.207 70.7346 114.269C70.7346 113.331 70.7559 113.331 70.7559 112.392C70.7559 111.454 70.9036 111.454 70.9036 110.516C70.9036 109.579 70.9535 109.579 70.9535 108.642C70.9535 107.703 70.9801 107.703 70.9801 106.765C70.9801 105.827 70.9541 105.827 70.9541 104.889C70.9541 103.95 70.8829 103.95 70.8829 103.012C70.8829 102.072 70.8425 102.072 70.8425 101.132C70.8425 100.191 70.0726 99.7604 70.8738 99.2643C71.698 98.7539 71.7362 99.6804 72.6246 100.071C73.5125 100.461 73.5391 100.402 74.4275 100.792C75.3159 101.183 75.2644 101.3 76.1528 101.69C77.0412 102.081 77.1177 101.908 78.0056 102.298C78.894 102.689 78.8435 102.803 79.7319 103.193C80.6203 103.584 80.5991 103.632 81.4875 104.023C82.3759 104.414 82.4057 104.347 83.2941 104.737C84.1825 105.128 84.1628 105.173 85.0518 105.563C85.9402 105.954 85.9588 105.912 86.8472 106.302C87.7361 106.693 87.7967 106.556 88.6851 106.946C89.5741 107.337 89.5576 107.373 90.4465 107.764C91.3334 108.154 91.3509 108.114 92.2382 108.504C93.1261 108.894 93.0624 109.038 93.9502 109.428C94.8392 109.819 94.81 109.884 95.6989 110.275C96.5868 110.665 96.6665 110.485 97.5544 110.876C98.4428 111.266 98.4136 111.332 99.3025 111.723C100.191 112.113 100.173 112.155 101.061 112.545C101.95 112.936 101.94 112.958 102.83 113.349C103.718 113.74 103.767 113.629 104.656 114.02C105.545 114.41 105.467 114.587 106.356 114.977C107.246 115.368 107.325 115.19 108.214 115.58C109.104 115.971 109.104 115.971 109.993 116.362C110.882 116.752 110.899 116.712 111.788 117.103C112.677 117.494 112.58 117.715 113.469 118.105C114.359 118.496 114.437 118.319 115.327 118.71C116.217 119.101 116.153 119.245 117.043 119.636C117.934 120.028 117.929 120.04 118.82 120.431C119.711 120.823 120.02 120.374 120.562 121.181C121.084 121.96 120.579 122.065 120.579 123.002C120.579 123.94 120.551 123.94 120.551 124.877C120.551 125.815 120.713 125.815 120.713 126.752C120.713 127.689 120.711 127.689 120.711 128.627C120.711 129.564 120.72 129.564 120.72 130.502C120.72 131.44 120.619 131.44 120.619 132.377C120.619 133.313 120.554 133.313 120.554 134.25C120.554 135.188 120.531 135.188 120.531 136.125C120.531 137.062 120.534 137.062 120.534 137.998C120.534 138.935 120.686 138.935 120.686 139.873C120.686 140.81 120.741 140.81 120.741 141.747C120.741 142.685 120.617 142.685 120.617 143.623C120.617 144.561 120.653 144.561 120.653 145.498C120.653 146.436 120.611 146.436 120.611 147.374C120.611 148.312 120.738 148.312 120.738 149.25C120.738 150.188 120.572 150.188 120.572 151.126C120.572 152.064 120.674 152.064 120.674 153.001C120.674 153.939 120.712 153.939 120.712 154.877C120.712 155.815 120.516 155.815 120.516 156.754C120.516 157.692 120.711 157.692 120.711 158.631C120.711 159.571 120.53 159.569 120.759 160.482C121.018 161.512 121.476 161.949 120.674 162.445Z" stroke="#414C58" stroke-width="0.4593" stroke-linecap="round" stroke-linejoin="round"/>
<path fill-rule="evenodd" clip-rule="evenodd" d="M100.994 144.443C100.046 144.652 100.081 144.159 99.1969 143.759C98.3116 143.358 98.3871 143.192 97.5024 142.791C96.6161 142.389 96.6167 142.388 95.7304 141.987C94.8451 141.586 94.7702 141.75 93.885 141.349C92.9992 140.948 93.0386 140.86 92.1528 140.459C91.267 140.058 91.2309 140.137 90.3452 139.736C89.4589 139.334 89.4934 139.258 88.6071 138.856C87.7214 138.454 87.6735 138.559 86.7878 138.157C85.901 137.755 85.9541 137.64 85.0673 137.239C84.181 136.837 84.2166 136.758 83.3298 136.357C82.443 135.955 82.3723 136.109 81.486 135.707C80.6002 135.306 80.613 135.277 79.7272 134.876C78.8404 134.474 78.808 134.546 77.9212 134.144C77.0344 133.742 77.0503 133.707 76.1635 133.305C75.2767 132.903 75.3511 132.74 74.4642 132.338C73.5753 131.935 73.5046 132.09 72.6162 131.687C71.7278 131.284 71.4786 131.584 70.9377 130.774C70.4218 130.001 70.7501 129.893 70.7501 128.965C70.7501 128.037 70.9972 128.037 70.9972 127.11C70.9972 126.182 70.9425 126.182 70.9425 125.255C70.9425 124.327 70.7863 124.327 70.7863 123.4C70.7863 122.472 70.8447 122.472 70.8447 121.544C70.8447 120.616 70.8383 120.616 70.8383 119.688C70.8383 118.76 70.8612 118.76 70.8612 117.831C70.8612 116.903 70.9898 116.903 70.9898 115.976C70.9898 115.047 70.9265 115.047 70.9265 114.119C70.9265 113.19 70.7539 113.19 70.7539 112.261C70.7539 111.332 70.9627 111.332 70.9627 110.403C70.9627 109.476 70.7815 109.476 70.7815 108.548C70.7815 107.619 70.901 107.619 70.901 106.69C70.901 105.761 70.9696 105.761 70.9696 104.832C70.9696 103.903 70.8203 103.903 70.8203 102.974C70.8203 102.044 70.9207 102.044 70.9207 101.113C70.9207 100.182 70.0339 99.678 70.8309 99.193C71.6593 98.6889 71.7634 99.6229 72.6513 100.013C73.5397 100.403 73.5753 100.323 74.4637 100.713C75.3521 101.104 75.3346 101.144 76.223 101.534C77.1114 101.925 77.0843 101.985 77.9727 102.376C78.8611 102.766 78.8325 102.83 79.7209 103.221C80.6098 103.611 80.6268 103.573 81.5158 103.964C82.4036 104.354 82.4148 104.329 83.3032 104.719C84.1922 105.11 84.1656 105.169 85.0545 105.56C85.9429 105.951 85.9902 105.844 86.8786 106.234C87.7671 106.625 87.7687 106.621 88.6576 107.012C89.546 107.402 89.5588 107.373 90.4477 107.764C91.3351 108.154 91.3499 108.12 92.2373 108.51C93.1246 108.9 93.0917 108.975 93.9796 109.365C94.8685 109.755 94.8106 109.886 95.6995 110.277C96.5874 110.667 96.6198 110.593 97.5077 110.983C98.3967 111.374 98.4195 111.322 99.3085 111.712C100.197 112.103 100.161 112.183 101.05 112.574C101.939 112.965 101.984 112.863 102.873 113.254C103.762 113.644 103.725 113.727 104.614 114.117C105.503 114.508 105.527 114.453 106.416 114.844C107.306 115.235 107.34 115.158 108.23 115.548C109.119 115.939 109.101 115.981 109.99 116.373C110.879 116.763 110.831 116.869 111.72 117.26C112.609 117.651 112.61 117.65 113.499 118.041C114.389 118.432 114.422 118.357 115.311 118.748C116.201 119.139 116.156 119.241 117.046 119.632C117.937 120.023 117.976 119.937 118.867 120.328C119.758 120.72 120.499 120.163 120.733 121.106C120.963 122.028 119.995 121.828 119.382 122.556C118.769 123.285 118.796 123.309 118.182 124.038C117.57 124.766 117.5 124.709 116.888 125.437C116.274 126.166 116.305 126.193 115.692 126.922C115.079 127.652 115.214 127.764 114.601 128.493C113.987 129.223 113.801 129.068 113.188 129.797C112.575 130.527 112.604 130.551 111.99 131.28C111.377 132.011 111.36 131.997 110.747 132.726C110.133 133.457 110.289 133.587 109.675 134.317C109.061 135.047 108.902 134.914 108.288 135.644C107.675 136.373 107.847 136.516 107.234 137.246C106.619 137.975 106.59 137.95 105.976 138.68C105.362 139.411 105.344 139.396 104.73 140.126C104.116 140.856 104.166 140.898 103.552 141.628C102.936 142.359 102.737 142.205 102.263 143.034C101.771 143.894 101.93 144.237 100.994 144.443Z" fill="#313942"/>
<path fill-rule="evenodd" clip-rule="evenodd" d="M100.994 144.443C100.046 144.652 100.081 144.159 99.1969 143.759C98.3116 143.358 98.3871 143.192 97.5024 142.791C96.6161 142.389 96.6167 142.388 95.7304 141.987C94.8451 141.586 94.7702 141.75 93.885 141.349C92.9992 140.948 93.0386 140.86 92.1528 140.459C91.267 140.058 91.2309 140.137 90.3452 139.736C89.4589 139.334 89.4934 139.258 88.6071 138.856C87.7214 138.454 87.6735 138.559 86.7878 138.157C85.901 137.755 85.9541 137.64 85.0673 137.239C84.181 136.837 84.2166 136.758 83.3298 136.357C82.443 135.955 82.3723 136.109 81.486 135.707C80.6002 135.306 80.613 135.277 79.7272 134.876C78.8404 134.474 78.808 134.546 77.9212 134.144C77.0344 133.742 77.0503 133.707 76.1635 133.305C75.2767 132.903 75.3511 132.74 74.4642 132.338C73.5753 131.935 73.5046 132.09 72.6162 131.687C71.7278 131.284 71.4786 131.584 70.9377 130.774C70.4218 130.001 70.7501 129.893 70.7501 128.965C70.7501 128.037 70.9972 128.037 70.9972 127.11C70.9972 126.182 70.9425 126.182 70.9425 125.255C70.9425 124.327 70.7863 124.327 70.7863 123.4C70.7863 122.472 70.8447 122.472 70.8447 121.544C70.8447 120.616 70.8383 120.616 70.8383 119.688C70.8383 118.76 70.8612 118.76 70.8612 117.831C70.8612 116.903 70.9898 116.903 70.9898 115.976C70.9898 115.047 70.9265 115.047 70.9265 114.119C70.9265 113.19 70.7539 113.19 70.7539 112.261C70.7539 111.332 70.9627 111.332 70.9627 110.403C70.9627 109.476 70.7815 109.476 70.7815 108.548C70.7815 107.619 70.901 107.619 70.901 106.69C70.901 105.761 70.9696 105.761 70.9696 104.832C70.9696 103.903 70.8203 103.903 70.8203 102.974C70.8203 102.044 70.9207 102.044 70.9207 101.113C70.9207 100.182 70.0339 99.678 70.8309 99.193C71.6593 98.6889 71.7634 99.6229 72.6513 100.013C73.5397 100.403 73.5753 100.323 74.4637 100.713C75.3521 101.104 75.3346 101.144 76.223 101.534C77.1114 101.925 77.0843 101.985 77.9727 102.376C78.8611 102.766 78.8325 102.83 79.7209 103.221C80.6098 103.611 80.6268 103.573 81.5158 103.964C82.4036 104.354 82.4148 104.329 83.3032 104.719C84.1922 105.11 84.1656 105.169 85.0545 105.56C85.9429 105.951 85.9902 105.844 86.8786 106.234C87.7671 106.625 87.7687 106.621 88.6576 107.012C89.546 107.402 89.5588 107.373 90.4477 107.764C91.3351 108.154 91.3499 108.12 92.2373 108.51C93.1246 108.9 93.0917 108.975 93.9796 109.365C94.8685 109.755 94.8106 109.886 95.6995 110.277C96.5874 110.667 96.6198 110.593 97.5077 110.983C98.3967 111.374 98.4195 111.322 99.3085 111.712C100.197 112.103 100.161 112.183 101.05 112.574C101.939 112.965 101.984 112.863 102.873 113.254C103.762 113.644 103.725 113.727 104.614 114.117C105.503 114.508 105.527 114.453 106.416 114.844C107.306 115.235 107.34 115.158 108.23 115.548C109.119 115.939 109.101 115.981 109.99 116.373C110.879 116.763 110.831 116.869 111.72 117.26C112.609 117.651 112.61 117.65 113.499 118.041C114.389 118.432 114.422 118.357 115.311 118.748C116.201 119.139 116.156 119.241 117.046 119.632C117.937 120.023 117.976 119.937 118.867 120.328C119.758 120.72 120.499 120.163 120.733 121.106C120.963 122.028 119.995 121.828 119.382 122.556C118.769 123.285 118.796 123.309 118.182 124.038C117.57 124.766 117.5 124.709 116.888 125.437C116.274 126.166 116.305 126.193 115.692 126.922C115.079 127.652 115.214 127.764 114.601 128.493C113.987 129.223 113.801 129.068 113.188 129.797C112.575 130.527 112.604 130.551 111.99 131.28C111.377 132.011 111.36 131.997 110.747 132.726C110.133 133.457 110.289 133.587 109.675 134.317C109.061 135.047 108.902 134.914 108.288 135.644C107.675 136.373 107.847 136.516 107.234 137.246C106.619 137.975 106.59 137.95 105.976 138.68C105.362 139.411 105.344 139.396 104.73 140.126C104.116 140.856 104.166 140.898 103.552 141.628C102.936 142.359 102.737 142.205 102.263 143.034C101.771 143.894 101.93 144.237 100.994 144.443Z" stroke="#414C58" stroke-width="0.4593" stroke-linecap="round" stroke-linejoin="round"/>
<path fill-rule="evenodd" clip-rule="evenodd" d="M50.1865 108.086C51.0313 107.713 51.0308 107.713 51.8756 107.339C52.721 106.966 52.7024 106.924 53.5483 106.551C54.3931 106.178 54.4457 106.296 55.2906 105.922C56.1359 105.549 56.1535 105.588 56.9989 105.215C57.8448 104.841 57.7799 104.696 58.6258 104.322C59.4717 103.949 59.4744 103.955 60.3203 103.582C61.1651 103.208 61.1933 103.272 62.0382 102.899C62.8841 102.525 62.8501 102.449 63.696 102.076C64.5419 101.702 64.6104 101.857 65.4563 101.483C66.3022 101.109 66.3091 101.124 67.155 100.751C68.0025 100.376 68.0142 100.402 68.8617 100.027C69.7092 99.653 69.6667 99.5577 70.5142 99.1833C70.7374 99.0849 70.9892 99.0976 71.2124 99.1971C72.0939 99.591 72.079 99.6233 72.9611 100.017C73.8426 100.411 73.8229 100.455 74.7049 100.85C75.5864 101.243 75.6024 101.207 76.4839 101.601C77.3659 101.995 77.351 102.028 78.2326 102.422C79.1146 102.816 79.1061 102.835 79.9881 103.228C80.8696 103.622 80.9387 103.469 81.8202 103.863C82.7022 104.257 82.7187 104.221 83.6008 104.615C84.4828 105.009 84.4217 105.144 85.3037 105.538C86.1852 105.932 86.1911 105.92 87.0726 106.314C87.9546 106.708 87.919 106.787 88.801 107.181C89.6815 107.574 89.7054 107.521 90.5858 107.914C91.4674 108.308 91.5221 108.186 92.4031 108.58C93.2851 108.974 93.2909 108.961 94.173 109.356C95.0539 109.749 94.9944 109.882 95.8754 110.276C96.7574 110.67 96.8201 110.531 97.7022 110.925C98.5837 111.319 98.5885 111.308 99.4705 111.702C100.353 112.096 100.271 112.279 101.153 112.673C102.035 113.067 102.049 113.037 102.931 113.431C103.813 113.825 103.833 113.78 104.716 114.174C105.599 114.569 105.63 114.499 106.512 114.894C107.396 115.288 107.343 115.405 108.226 115.799C109.108 116.193 109.084 116.246 109.966 116.639C110.848 117.034 110.881 116.961 111.764 117.356C112.646 117.75 112.704 117.623 113.587 118.017C114.47 118.412 114.441 118.477 115.324 118.871C116.208 119.267 116.201 119.283 117.085 119.678C117.97 120.073 117.957 120.101 118.842 120.496C119.526 120.802 119.534 121.753 118.846 122.049C118.002 122.411 118.028 122.473 117.185 122.835C116.34 123.197 116.297 123.099 115.452 123.462C114.608 123.824 114.609 123.826 113.764 124.189C112.919 124.551 112.93 124.575 112.085 124.938C111.24 125.301 111.197 125.202 110.352 125.565C109.507 125.927 109.543 126.01 108.698 126.373C107.854 126.735 107.846 126.716 107.001 127.079C106.156 127.441 106.195 127.529 105.349 127.892C104.504 128.255 104.497 128.237 103.651 128.6C102.806 128.962 102.771 128.882 101.926 129.245C101.079 129.609 101.055 129.553 100.208 129.916C99.3616 130.28 99.4248 130.426 98.5778 130.79C98.3579 130.884 98.131 130.749 97.9115 130.652C97.0295 130.264 97.0173 130.291 96.1352 129.902C95.2532 129.513 95.2745 129.465 94.3924 129.076C93.5104 128.687 93.4562 128.81 92.5742 128.421C91.6921 128.032 91.648 128.131 90.766 127.742C89.8839 127.353 89.9477 127.208 89.0657 126.819C88.1836 126.43 88.1921 126.411 87.3101 126.022C86.4275 125.633 86.4089 125.675 85.5269 125.285C84.6449 124.896 84.6789 124.82 83.7963 124.431C82.9143 124.041 82.9031 124.067 82.0205 123.678C81.1385 123.289 81.0816 123.416 80.1996 123.027C79.3186 122.638 79.3362 122.599 78.4557 122.21C77.5742 121.821 77.5971 121.77 76.7156 121.381C75.833 120.992 75.8224 121.016 74.9398 120.627C74.0583 120.238 74.0137 120.338 73.1322 119.95C72.2501 119.561 72.3118 119.421 71.4297 119.031C70.5477 118.642 70.527 118.688 69.6455 118.299C68.7624 117.91 68.7326 117.977 67.85 117.587C66.9675 117.198 66.9983 117.128 66.1162 116.739C65.2337 116.35 65.2092 116.404 64.3267 116.015C63.4436 115.626 63.4632 115.581 62.5801 115.191C61.697 114.802 61.7204 114.749 60.8373 114.36C59.9553 113.97 59.9909 113.89 59.1088 113.501C58.2257 113.112 58.2146 113.137 57.3315 112.747C56.4484 112.358 56.3846 112.501 55.5015 112.111C54.6179 111.722 54.5887 111.787 53.7056 111.398C52.8203 111.007 52.9085 110.809 52.0239 110.419C51.1386 110.029 51.0749 110.173 50.1902 109.782C49.5069 109.481 49.5037 108.388 50.1865 108.086Z" fill="white"/>
<path fill-rule="evenodd" clip-rule="evenodd" d="M50.1865 108.086C51.0313 107.713 51.0308 107.713 51.8756 107.339C52.721 106.966 52.7024 106.924 53.5483 106.551C54.3931 106.178 54.4457 106.296 55.2906 105.922C56.1359 105.549 56.1535 105.588 56.9989 105.215C57.8448 104.841 57.7799 104.696 58.6258 104.322C59.4717 103.949 59.4744 103.955 60.3203 103.582C61.1652 103.208 61.1933 103.272 62.0382 102.899C62.8841 102.525 62.8501 102.449 63.696 102.076C64.5419 101.702 64.6104 101.857 65.4563 101.483C66.3022 101.109 66.3091 101.124 67.155 100.751C68.0025 100.376 68.0142 100.402 68.8617 100.027C69.7092 99.653 69.6667 99.5577 70.5142 99.1833C70.7374 99.0849 70.9892 99.0976 71.2124 99.1971C72.0939 99.591 72.079 99.6233 72.9611 100.017C73.8426 100.411 73.8229 100.455 74.7049 100.85C75.5864 101.243 75.6024 101.207 76.4839 101.601C77.3659 101.995 77.351 102.028 78.2326 102.422C79.1146 102.816 79.1061 102.835 79.9881 103.228C80.8696 103.622 80.9387 103.469 81.8202 103.863C82.7022 104.257 82.7187 104.221 83.6008 104.615C84.4828 105.009 84.4217 105.144 85.3037 105.538C86.1852 105.932 86.1911 105.92 87.0726 106.314C87.9546 106.708 87.919 106.787 88.801 107.181C89.6815 107.574 89.7054 107.521 90.5858 107.914C91.4673 108.308 91.5221 108.186 92.4031 108.58C93.2851 108.974 93.2909 108.961 94.173 109.356C95.0539 109.749 94.9944 109.882 95.8754 110.276C96.7574 110.67 96.8201 110.531 97.7022 110.925C98.5837 111.319 98.5885 111.308 99.4705 111.702C100.353 112.096 100.271 112.279 101.153 112.673C102.035 113.067 102.049 113.037 102.931 113.431C103.813 113.825 103.833 113.78 104.716 114.174C105.599 114.569 105.63 114.499 106.512 114.894C107.396 115.288 107.343 115.405 108.226 115.799C109.108 116.193 109.084 116.246 109.966 116.639C110.848 117.034 110.881 116.961 111.764 117.356C112.646 117.75 112.704 117.623 113.587 118.017C114.47 118.412 114.441 118.477 115.324 118.871C116.208 119.267 116.201 119.283 117.085 119.678C117.97 120.073 117.957 120.101 118.842 120.496C119.526 120.802 119.534 121.753 118.846 122.049C118.002 122.411 118.028 122.473 117.185 122.835C116.34 123.197 116.297 123.099 115.452 123.462C114.608 123.824 114.609 123.826 113.764 124.189C112.919 124.551 112.93 124.575 112.085 124.938C111.24 125.301 111.197 125.202 110.352 125.565C109.507 125.927 109.543 126.01 108.698 126.373C107.854 126.735 107.846 126.716 107.001 127.079C106.156 127.441 106.195 127.529 105.349 127.892C104.504 128.255 104.497 128.237 103.651 128.6C102.806 128.962 102.771 128.882 101.926 129.245C101.079 129.609 101.055 129.553 100.208 129.916C99.3616 130.28 99.4248 130.426 98.5778 130.79C98.3579 130.884 98.131 130.749 97.9115 130.652C97.0295 130.264 97.0173 130.291 96.1352 129.902C95.2532 129.513 95.2745 129.465 94.3924 129.076C93.5104 128.687 93.4562 128.81 92.5741 128.421C91.6921 128.032 91.648 128.131 90.766 127.742C89.8839 127.353 89.9477 127.208 89.0657 126.819C88.1836 126.43 88.1921 126.411 87.3101 126.022C86.4275 125.633 86.4089 125.675 85.5269 125.285C84.6449 124.896 84.6789 124.82 83.7963 124.431C82.9143 124.041 82.9031 124.067 82.0205 123.678C81.1385 123.289 81.0816 123.416 80.1996 123.027C79.3186 122.638 79.3362 122.599 78.4557 122.21C77.5742 121.821 77.5971 121.77 76.7156 121.381C75.833 120.992 75.8224 121.016 74.9398 120.627C74.0583 120.238 74.0137 120.338 73.1322 119.95C72.2501 119.561 72.3118 119.421 71.4297 119.031C70.5477 118.642 70.527 118.688 69.6455 118.299C68.7624 117.91 68.7326 117.977 67.85 117.587C66.9675 117.198 66.9983 117.128 66.1162 116.739C65.2337 116.35 65.2092 116.404 64.3267 116.015C63.4436 115.626 63.4632 115.581 62.5801 115.191C61.697 114.802 61.7204 114.749 60.8373 114.36C59.9553 113.97 59.9909 113.89 59.1088 113.501C58.2257 113.112 58.2146 113.137 57.3315 112.747C56.4484 112.358 56.3846 112.501 55.5015 112.111C54.6179 111.722 54.5887 111.787 53.7056 111.398C52.8203 111.007 52.9085 110.809 52.0239 110.419C51.1386 110.029 51.0749 110.173 50.1902 109.782C49.5069 109.481 49.5037 108.388 50.1865 108.086Z" stroke="#414C58" stroke-width="0.4593" stroke-linecap="round" stroke-linejoin="round"/>
<path d="M45.3016 29.3976C46.106 29.9482 46.0093 30.088 46.8138 30.6387C47.6182 31.1893 47.6384 31.1602 48.4424 31.7103C49.2468 32.2615 49.3175 32.1588 50.122 32.7094C50.9254 33.2601 50.8993 33.2982 51.7027 33.8483C52.5056 34.3984 52.4434 34.489 53.2463 35.0386C54.0497 35.5887 54.1055 35.5077 54.9094 36.0578C55.7139 36.609 55.6862 36.6487 56.4907 37.1993C57.2946 37.7495 57.3509 37.6674 58.1549 38.2175C58.9593 38.7682 58.8276 38.9593 59.632 39.5099C60.4359 40.0606 60.5443 39.9039 61.3483 40.4545C62.1533 41.0052 62.0736 41.1206 62.8785 41.6718C63.683 42.2224 63.7101 42.1827 64.5146 42.7334C65.3196 43.2846 65.3482 43.2422 66.1532 43.7934C66.9582 44.3446 66.9343 44.379 67.7398 44.9301C68.5448 45.4813 68.5416 45.4861 69.3466 46.0373C70.1506 46.5879 70.1878 46.5339 70.9917 47.0846C71.7972 47.6357 71.7552 47.6961 72.5602 48.2473C73.3657 48.7985 73.4189 48.7217 74.2239 49.2729C75.0294 49.824 74.9327 49.9644 75.7382 50.5155C76.5448 51.0683 76.6266 50.9492 77.4332 51.5014C78.2403 52.0536 78.1516 52.1818 78.9582 52.734" stroke="#414C58" stroke-width="0.6124" stroke-linecap="round"/>
<path d="M182.706 25.9375C181.959 26.5496 182.049 26.7049 181.302 27.3169C180.556 27.929 180.537 27.8966 179.791 28.508C179.044 29.1206 178.979 29.0065 178.232 29.6185C177.487 30.2305 177.511 30.2729 176.765 30.8843C176.02 31.4958 176.078 31.5964 175.333 32.2073C174.587 32.8187 174.535 32.7287 173.789 33.3401C173.043 33.9527 173.068 33.9968 172.322 34.6089C171.576 35.2203 171.523 35.1291 170.777 35.7405C170.031 36.3525 170.153 36.565 169.406 37.177C168.66 37.789 168.56 37.6149 167.814 38.2269C167.067 38.8389 167.14 38.9672 166.393 39.5798C165.647 40.1918 165.622 40.1477 164.875 40.7597C164.128 41.3723 164.101 41.3253 163.354 41.9379C162.607 42.5505 162.629 42.5887 161.882 43.2013C161.135 43.814 161.138 43.8193 160.391 44.4319C159.645 45.0439 159.61 44.9839 158.864 45.5959C158.116 46.2085 158.155 46.2756 157.408 46.8882C156.661 47.5008 156.611 47.4155 155.864 48.0281C155.117 48.6407 155.206 48.7967 154.459 49.4093C153.71 50.0237 153.634 49.8912 152.886 50.505C152.137 51.1188 152.219 51.2612 151.471 51.875" stroke="#414C58" stroke-width="0.6124" stroke-linecap="round"/>
<path d="M90.2883 4.74562C90.6267 5.66002 90.6597 5.64784 90.9981 6.56277C91.3366 7.47716 91.3616 7.46816 91.7001 8.38256C92.0385 9.29748 91.8781 9.35625 92.2165 10.2712C92.5545 11.1845 92.7824 11.1009 93.1209 12.0147C93.4594 12.9291 93.3881 12.9551 93.7266 13.87C94.0651 14.7833 94.0832 14.7764 94.4211 15.6903C94.7596 16.6047 94.6905 16.6307 95.029 17.5451C95.3669 18.4595 95.4567 18.4261 95.7952 19.3405C96.1336 20.2554 96.0598 20.2824 96.3988 21.1973C96.7372 22.1123 96.6682 22.1372 97.0066 23.0516C97.3456 23.9665 97.4615 23.9241 97.7999 24.839C98.1389 25.754 98.1469 25.7513 98.4859 26.6663C98.8244 27.5817 98.7149 27.6219 99.0534 28.5374C99.3918 29.4518 99.547 29.3946 99.8855 30.309C100.224 31.2239 100.104 31.2684 100.443 32.1833C100.782 33.0988 100.73 33.1179 101.068 34.0333C101.407 34.9493 101.353 34.9689 101.692 35.8849C102.032 36.8019 102.121 36.7686 102.46 37.6861C102.8 38.6032 102.948 38.5486 103.287 39.4657" stroke="#414C58" stroke-width="0.6124" stroke-linecap="round"/>
<path d="M139.85 3.38364C139.575 4.27632 139.727 4.32292 139.451 5.21561C139.175 6.10935 139.076 6.07864 138.799 6.97186C138.523 7.86614 138.607 7.89208 138.33 8.78636C138.054 9.67958 137.923 9.63934 137.647 10.5326C137.371 11.4268 137.553 11.483 137.277 12.3778C137.001 13.2715 136.923 13.2477 136.647 14.1414C136.371 15.0362 136.368 15.0357 136.092 15.9305C135.815 16.8243 135.745 16.8031 135.469 17.6974C135.193 18.5916 135.258 18.6118 134.981 19.5066C134.705 20.4014 134.687 20.3961 134.41 21.2909C134.134 22.1862 134.226 22.2143 133.949 23.1091C133.672 24.0034 133.587 23.9774 133.311 24.8712C133.035 25.766 133.086 25.7818 132.809 26.6767C132.532 27.572 132.612 27.5963 132.335 28.4912C132.058 29.3865 131.948 29.3526 131.671 30.2479C131.394 31.1449 131.475 31.1697 131.198 32.0667C130.921 32.9636 130.827 32.9345 130.55 33.8314" stroke="#414C58" stroke-width="0.6124" stroke-linecap="round"/>
</g>
<defs>
<clipPath id="clip0_5950_74780">
<rect width="236" height="166" fill="white" transform="translate(0.5)"/>
</clipPath>
</defs>
</svg>
